G04*
G04 #@! TF.GenerationSoftware,Altium Limited,Altium Designer,18.0.12 (696)*
G04*
G04 Layer_Color=32896*
%FSLAX25Y25*%
%MOIN*%
G70*
G01*
G75*
%ADD10C,0.01000*%
D10*
X248114Y422624D02*
Y426559D01*
X246802Y425248D01*
X245490Y426559D01*
Y422624D01*
X243523Y425248D02*
X242211D01*
X241555Y424592D01*
Y422624D01*
X243523D01*
X244178Y423280D01*
X243523Y423936D01*
X241555D01*
X237619Y426559D02*
Y422624D01*
X239587D01*
X240243Y423280D01*
Y424592D01*
X239587Y425248D01*
X237619D01*
X234339Y422624D02*
X235651D01*
X236307Y423280D01*
Y424592D01*
X235651Y425248D01*
X234339D01*
X233683Y424592D01*
Y423936D01*
X236307D01*
X228435Y426559D02*
Y422624D01*
X226468D01*
X225812Y423280D01*
Y423936D01*
Y424592D01*
X226468Y425248D01*
X228435D01*
X224500D02*
Y423280D01*
X223844Y422624D01*
X221876D01*
Y421968D01*
X222532Y421312D01*
X223188D01*
X221876Y422624D02*
Y425248D01*
X245490Y418125D02*
X248114D01*
Y414189D01*
X245490D01*
X248114Y416157D02*
X246802D01*
X244178Y416813D02*
Y414189D01*
Y415501D01*
X243523Y416157D01*
X242866Y416813D01*
X242211D01*
X240243Y414189D02*
X238931D01*
X239587D01*
Y416813D01*
X240243D01*
X234339D02*
X236307D01*
X236963Y416157D01*
Y414845D01*
X236307Y414189D01*
X234339D01*
X233027D02*
Y418125D01*
Y415501D02*
X231059Y416813D01*
X233027Y415501D02*
X231059Y414189D01*
X225156Y418125D02*
Y414189D01*
X223188D01*
X222532Y414845D01*
Y415501D01*
X223188Y416157D01*
X225156D01*
X223188D01*
X222532Y416813D01*
Y417469D01*
X223188Y418125D01*
X225156D01*
X221220Y414189D02*
Y414845D01*
X220564D01*
Y414189D01*
X221220D01*
X248228Y434837D02*
Y430838D01*
X246229Y428839D01*
X244230Y430838D01*
Y434837D01*
X236232Y433837D02*
X235232Y434837D01*
X233233D01*
X232234Y433837D01*
Y429838D01*
X233233Y428839D01*
X235232D01*
X236232Y429838D01*
Y433837D01*
X230234Y428839D02*
Y429838D01*
X229235D01*
Y428839D01*
X230234D01*
X225236D02*
X223236D01*
X224236D01*
Y434837D01*
X225236Y433837D01*
X212598Y277854D02*
Y437008D01*
Y277854D02*
X262598D01*
Y437008D01*
X212598D02*
X262598D01*
M02*
