G04*
G04 #@! TF.GenerationSoftware,Altium Limited,Altium Designer,18.0.12 (696)*
G04*
G04 Layer_Physical_Order=1*
G04 Layer_Color=255*
%FSLAX25Y25*%
%MOIN*%
G70*
G01*
G75*
%ADD10C,0.01000*%
%ADD14R,0.06890X0.04331*%
%ADD15R,0.03150X0.04921*%
%ADD16R,0.04921X0.03150*%
%ADD17R,0.03347X0.03150*%
%ADD18R,0.02362X0.02165*%
%ADD19R,0.04134X0.06299*%
%ADD20R,0.02953X0.02165*%
%ADD21R,0.02756X0.00984*%
%ADD22R,0.00984X0.02756*%
%ADD23R,0.10236X0.10236*%
%ADD24R,0.06693X0.03150*%
%ADD25R,0.03150X0.03347*%
%ADD26R,0.06299X0.04134*%
%ADD27C,0.00394*%
%ADD28R,0.02362X0.01968*%
%ADD29R,0.04134X0.05512*%
%ADD53C,0.06890*%
%ADD54R,0.06890X0.06890*%
%ADD55C,0.06400*%
%ADD56R,0.06400X0.06400*%
%ADD57C,0.06000*%
%ADD58C,0.06500*%
%ADD59C,0.02000*%
%ADD60C,0.01968*%
G36*
X217520Y338189D02*
X218799Y336910D01*
X255906D01*
X256102Y336713D01*
Y332185D01*
X256004Y332087D01*
X214370D01*
Y337106D01*
X213287Y338189D01*
Y344587D01*
X217520D01*
Y338189D01*
D02*
G37*
G36*
X262598Y277854D02*
X212598D01*
Y337673D01*
X213098Y337835D01*
X213099D01*
X213987Y336947D01*
Y332087D01*
X214099Y331815D01*
X214370Y331703D01*
X256004D01*
X256275Y331815D01*
X256306Y331846D01*
X256625Y331786D01*
X256806Y331693D01*
Y326984D01*
X252862D01*
Y323819D01*
Y320654D01*
X253906D01*
X254098Y320192D01*
X252347Y318441D01*
X252011Y318581D01*
X251083Y318703D01*
X250155Y318581D01*
X249290Y318223D01*
X248548Y317653D01*
X247978Y316911D01*
X247620Y316046D01*
X247498Y315118D01*
X247620Y314190D01*
X247978Y313326D01*
X248548Y312583D01*
X249290Y312013D01*
X250155Y311655D01*
X251083Y311533D01*
X252011Y311655D01*
X252875Y312013D01*
X253618Y312583D01*
X254187Y313326D01*
X254545Y314190D01*
X254668Y315118D01*
X254545Y316046D01*
X254187Y316911D01*
X253794Y317424D01*
X255751Y319381D01*
X256527D01*
X256860Y319447D01*
X257143Y319636D01*
X258293Y320786D01*
X258482Y321069D01*
X258548Y321402D01*
Y340748D01*
X258482Y341081D01*
X258293Y341364D01*
X248818Y350839D01*
X248976Y351220D01*
X248976D01*
Y355079D01*
X247712D01*
X247521Y355541D01*
X248417Y356437D01*
X251240D01*
Y362067D01*
X248811D01*
X248279Y362598D01*
X250333Y364652D01*
X250522Y364935D01*
X250588Y365268D01*
Y370231D01*
X250693Y370302D01*
X250993Y370749D01*
X251098Y371278D01*
X250993Y371806D01*
X250693Y372254D01*
X250245Y372554D01*
X249717Y372659D01*
X249188Y372554D01*
X248741Y372254D01*
X248267Y372445D01*
X248095Y372702D01*
X247434Y373144D01*
X247153Y373200D01*
Y371260D01*
X246153D01*
Y373200D01*
X245873Y373144D01*
X245212Y372702D01*
X244830Y372131D01*
X244488D01*
X244155Y372065D01*
X243872Y371876D01*
X242682Y370685D01*
X242429D01*
Y368701D01*
X241429D01*
Y370685D01*
X239748D01*
Y370448D01*
X239528Y370039D01*
X238946D01*
X238642Y370413D01*
Y373878D01*
X236949D01*
X236949Y373878D01*
X236673D01*
Y373878D01*
X236449Y373878D01*
X235350D01*
Y374449D01*
X239331D01*
Y385394D01*
X228386D01*
Y374449D01*
X231876D01*
X232084Y373949D01*
X232013Y373878D01*
X230906Y373878D01*
X230543Y373878D01*
X229075D01*
Y370466D01*
X229075Y370413D01*
X228949Y369966D01*
X227756D01*
X227423Y369899D01*
X227140Y369710D01*
X226549Y369120D01*
X226361Y368837D01*
X226297Y368520D01*
X224098D01*
Y365264D01*
X227165D01*
Y364264D01*
X224098D01*
Y361008D01*
X225000D01*
X225259Y360508D01*
X225102Y360273D01*
X224997Y359744D01*
X225102Y359216D01*
X225401Y358768D01*
X225850Y358468D01*
X226378Y358363D01*
X226657Y358419D01*
X226903Y357958D01*
X226288Y357343D01*
X223760D01*
Y354468D01*
X227421D01*
Y356012D01*
X227944Y356535D01*
X233130D01*
X233154Y356045D01*
Y355890D01*
X236114D01*
Y358465D01*
X237114D01*
Y355890D01*
X240075D01*
Y356437D01*
X243760D01*
Y362067D01*
X244250Y362090D01*
X246359D01*
X246431Y361982D01*
X247382Y361032D01*
Y357866D01*
X244660Y355143D01*
X244616Y355079D01*
X241575D01*
Y351220D01*
X245973D01*
X256806Y340387D01*
Y337205D01*
X256625Y337112D01*
X256306Y337051D01*
X256177Y337181D01*
X255906Y337293D01*
X249622D01*
Y339264D01*
X240929D01*
Y337293D01*
X218958D01*
X217903Y338348D01*
Y344587D01*
X217874Y344657D01*
Y344843D01*
X217797D01*
X217791Y344858D01*
X217520Y344970D01*
X217308D01*
Y346988D01*
X217776D01*
Y347605D01*
X217853Y347620D01*
X218136Y347809D01*
X220891Y350565D01*
X221080Y350848D01*
X221147Y351181D01*
Y354134D01*
X221080Y354467D01*
X220891Y354750D01*
X219120Y356522D01*
X218837Y356710D01*
X218504Y356777D01*
X217776D01*
Y357343D01*
X217308D01*
Y359291D01*
X220138D01*
Y363150D01*
X214508D01*
Y359291D01*
X215566D01*
Y357343D01*
X214114D01*
Y354468D01*
X213705Y354248D01*
X213469D01*
Y352665D01*
X215945D01*
Y351665D01*
X213469D01*
Y350083D01*
X213705D01*
X214114Y349862D01*
Y346988D01*
X215566D01*
Y344970D01*
X213287D01*
X213098Y344892D01*
X212598Y345093D01*
X212598Y437008D01*
X262598D01*
X262598Y277854D01*
D02*
G37*
%LPC*%
G36*
X247598Y435000D02*
X240591D01*
Y430158D01*
X240591Y430158D01*
X240591D01*
X240345Y429766D01*
X236919Y426340D01*
X223307D01*
X223070Y426840D01*
X223124Y426968D01*
Y427475D01*
X231890D01*
X232223Y427542D01*
X232506Y427731D01*
X234933Y430158D01*
X239331D01*
Y435000D01*
X232323D01*
Y430158D01*
X232323Y430158D01*
X232323D01*
X232078Y429766D01*
X231529Y429217D01*
X223124D01*
Y429724D01*
X223011Y429996D01*
X222740Y430108D01*
X220772D01*
X220500Y429996D01*
X220153Y430343D01*
X220265Y430614D01*
Y431640D01*
X220333Y431708D01*
X224055D01*
Y430158D01*
X231063D01*
Y435000D01*
X224055D01*
Y433450D01*
X219972D01*
X219639Y433384D01*
X219356Y433195D01*
X219128Y432966D01*
X217126D01*
X216855Y432854D01*
X216742Y432583D01*
Y430614D01*
X216855Y430343D01*
X216507Y429996D01*
X216236Y430108D01*
X214268D01*
X213997Y429996D01*
X213884Y429724D01*
Y426968D01*
X213997Y426697D01*
X214268Y426585D01*
X214483D01*
Y423881D01*
X214378Y423811D01*
X214079Y423363D01*
X213973Y422835D01*
X214079Y422306D01*
X214378Y421858D01*
X214826Y421559D01*
X215354Y421454D01*
X215883Y421559D01*
X216331Y421858D01*
X216630Y422306D01*
X216735Y422835D01*
X216630Y423363D01*
X216609Y423395D01*
X216612Y423476D01*
X217036Y423764D01*
X217126Y423727D01*
X219882D01*
X220153Y423839D01*
X220265Y424110D01*
Y424597D01*
X223872D01*
X224055Y424173D01*
X224055Y424097D01*
Y419331D01*
X226849D01*
X226955Y419177D01*
X226871Y418961D01*
X226687Y418687D01*
X226243Y418599D01*
X225795Y418299D01*
X225725Y418194D01*
X223196D01*
X221876Y419514D01*
X221593Y419702D01*
X221260Y419769D01*
X220138D01*
Y420827D01*
X214508D01*
Y416968D01*
X216922D01*
X216972Y416468D01*
X216794Y416433D01*
X216346Y416134D01*
X216047Y415686D01*
X215942Y415158D01*
X216047Y414629D01*
X216346Y414181D01*
X216452Y414111D01*
Y413346D01*
X214508D01*
Y409516D01*
X214508Y409488D01*
X214508Y409016D01*
X214508Y408988D01*
Y405158D01*
X214830D01*
X215158Y404740D01*
X215155Y404724D01*
X215260Y404196D01*
X215559Y403748D01*
X216007Y403449D01*
X216535Y403344D01*
X217064Y403449D01*
X217512Y403748D01*
X217523Y403765D01*
X217994Y403570D01*
X217911Y403150D01*
X217935Y403025D01*
X216707Y401797D01*
X216532Y401535D01*
X214508D01*
Y397677D01*
X220138D01*
Y401535D01*
X220138D01*
X220062Y402035D01*
X220268Y402173D01*
X220567Y402621D01*
X220672Y403150D01*
X220574Y403641D01*
X220657Y403746D01*
X220967Y403980D01*
X221093Y403896D01*
X221426Y403830D01*
X221693Y403563D01*
X221693Y402894D01*
X221693Y402394D01*
X221693Y399941D01*
X221693Y399441D01*
Y396988D01*
X224764D01*
Y397141D01*
X224911Y397200D01*
X225461Y396889D01*
X225495Y396715D01*
X225795Y396267D01*
X226243Y395968D01*
X226771Y395862D01*
X227300Y395968D01*
X227748Y396267D01*
X228047Y396715D01*
X228152Y397243D01*
X228047Y397772D01*
X227748Y398220D01*
X227300Y398519D01*
X226771Y398624D01*
X226641Y398598D01*
X226300Y398935D01*
X226332Y399131D01*
X226446Y399389D01*
X226474Y399426D01*
X226906Y399512D01*
X227354Y399811D01*
X227654Y400259D01*
X227759Y400787D01*
X227703Y401066D01*
X228164Y401313D01*
X228715Y400762D01*
X228921Y400624D01*
Y399295D01*
X229567D01*
Y396988D01*
X232638D01*
Y399295D01*
X233283D01*
X233308Y399122D01*
X235524D01*
Y401197D01*
X234681D01*
X234173Y401705D01*
X234380Y402205D01*
X238051D01*
Y403314D01*
X238129Y403329D01*
X238411Y403518D01*
X240641Y405748D01*
X244153D01*
Y409340D01*
X244600Y409548D01*
X244936Y409281D01*
Y398649D01*
X244458Y398484D01*
X244153Y398752D01*
Y402126D01*
X238524D01*
Y401197D01*
X236524D01*
Y398622D01*
X236024D01*
Y398122D01*
X233350D01*
X233350Y396129D01*
X233110Y395728D01*
X233110Y395647D01*
Y390098D01*
X236510D01*
X236601Y389929D01*
X236509Y389667D01*
X236304Y389429D01*
X234842Y389429D01*
X234480Y389429D01*
X232874Y389429D01*
X232512Y389429D01*
X231413Y389429D01*
X231115Y389929D01*
X231207Y390098D01*
X231850D01*
Y395728D01*
X227992D01*
Y393391D01*
X227425D01*
X227354Y393496D01*
X226906Y393795D01*
X226378Y393901D01*
X225850Y393795D01*
X225401Y393496D01*
X225102Y393048D01*
X224997Y392520D01*
X225102Y391991D01*
X225401Y391543D01*
X225850Y391244D01*
X226378Y391139D01*
X226906Y391244D01*
X227354Y391543D01*
X227425Y391649D01*
X227992D01*
Y390098D01*
X229050D01*
Y387697D01*
X229075Y387573D01*
Y385965D01*
X230906Y385965D01*
X231268Y385965D01*
X232874Y385965D01*
X233236Y385965D01*
X234842Y385965D01*
X235205Y385965D01*
X236811Y385965D01*
X237173Y385965D01*
X238642D01*
Y387573D01*
X238666Y387697D01*
Y391735D01*
X238969Y391937D01*
X239268Y392385D01*
X239373Y392913D01*
X239268Y393442D01*
X238969Y393890D01*
X238521Y394189D01*
X237992Y394294D01*
X237464Y394189D01*
X236968Y394460D01*
X236968Y395728D01*
X237336Y396047D01*
X238697D01*
Y398268D01*
X241445D01*
X241951Y397762D01*
X241926Y397638D01*
X242031Y397109D01*
X242331Y396661D01*
X242436Y396591D01*
Y395728D01*
X240591D01*
Y390098D01*
X244436D01*
X244449Y390098D01*
X244936Y390068D01*
Y388392D01*
X241248Y384705D01*
X239902D01*
Y383012D01*
X239902D01*
Y382736D01*
X239902D01*
X239902Y380906D01*
X239902Y380543D01*
X239902Y378937D01*
X239902Y378575D01*
X239902Y376969D01*
X239902Y376606D01*
Y375138D01*
X241510D01*
X241634Y375113D01*
X248425D01*
X248759Y375180D01*
X249041Y375368D01*
X251491Y377818D01*
X251953Y377627D01*
Y374555D01*
X255898D01*
Y378500D01*
X252826D01*
X252635Y378962D01*
X254441Y380768D01*
X254482Y380736D01*
X255406Y380354D01*
X256398Y380223D01*
X257389Y380354D01*
X258314Y380736D01*
X259107Y381346D01*
X259716Y382139D01*
X260099Y383063D01*
X260230Y384055D01*
X260099Y385047D01*
X259716Y385971D01*
X259107Y386765D01*
X258314Y387374D01*
X257389Y387756D01*
X256398Y387887D01*
X255406Y387756D01*
X254482Y387374D01*
X253688Y386765D01*
X253079Y385971D01*
X252696Y385047D01*
X252566Y384055D01*
X252696Y383063D01*
X253079Y382139D01*
X253196Y381987D01*
X248064Y376855D01*
X247252D01*
X247095Y377276D01*
X247091Y377355D01*
X250423Y380687D01*
X250612Y380970D01*
X250678Y381303D01*
Y411610D01*
X250612Y411944D01*
X250423Y412226D01*
X243818Y418831D01*
X244026Y419331D01*
X247598D01*
Y424173D01*
X240591D01*
Y419739D01*
X240091Y419532D01*
X239331Y420292D01*
Y424173D01*
X237710D01*
X237613Y424664D01*
X237895Y424853D01*
X243136Y430093D01*
X243179Y430158D01*
X247598D01*
Y435000D01*
D02*
G37*
G36*
X256004Y434450D02*
X254781Y434289D01*
X253641Y433817D01*
X252662Y433066D01*
X251912Y432087D01*
X251439Y430947D01*
X251278Y429724D01*
X251439Y428501D01*
X251912Y427362D01*
X252662Y426383D01*
X253641Y425632D01*
X254781Y425160D01*
X256004Y424999D01*
X257227Y425160D01*
X258367Y425632D01*
X259345Y426383D01*
X260096Y427362D01*
X260568Y428501D01*
X260729Y429724D01*
X260568Y430947D01*
X260096Y432087D01*
X259345Y433066D01*
X258367Y433817D01*
X257227Y434289D01*
X256004Y434450D01*
D02*
G37*
G36*
X257095Y420953D02*
Y417232D01*
X260815D01*
X260735Y417842D01*
X260307Y418876D01*
X259626Y419763D01*
X258738Y420445D01*
X257704Y420873D01*
X257095Y420953D01*
D02*
G37*
G36*
X256095D02*
X255485Y420873D01*
X254451Y420445D01*
X253563Y419763D01*
X252882Y418876D01*
X252454Y417842D01*
X252374Y417232D01*
X256095D01*
Y420953D01*
D02*
G37*
G36*
X260815Y416232D02*
X257095D01*
Y412511D01*
X257704Y412592D01*
X258738Y413020D01*
X259626Y413701D01*
X260307Y414589D01*
X260735Y415623D01*
X260815Y416232D01*
D02*
G37*
G36*
X256095D02*
X252374D01*
X252454Y415623D01*
X252882Y414589D01*
X253563Y413701D01*
X254451Y413020D01*
X255485Y412592D01*
X256095Y412511D01*
Y416232D01*
D02*
G37*
G36*
X256496Y409344D02*
X255555Y409220D01*
X254678Y408857D01*
X253925Y408279D01*
X253348Y407526D01*
X252984Y406650D01*
X252861Y405709D01*
X252984Y404768D01*
X253348Y403891D01*
X253925Y403138D01*
X254678Y402560D01*
X255555Y402197D01*
X256496Y402073D01*
X257437Y402197D01*
X258314Y402560D01*
X259067Y403138D01*
X259644Y403891D01*
X260008Y404768D01*
X260132Y405709D01*
X260008Y406650D01*
X259644Y407526D01*
X259067Y408279D01*
X258314Y408857D01*
X257437Y409220D01*
X256496Y409344D01*
D02*
G37*
G36*
X256398Y397887D02*
X255406Y397757D01*
X254482Y397374D01*
X253688Y396765D01*
X253079Y395971D01*
X252696Y395047D01*
X252566Y394055D01*
X252696Y393063D01*
X253079Y392139D01*
X253688Y391346D01*
X254482Y390737D01*
X255406Y390354D01*
X256398Y390223D01*
X257389Y390354D01*
X258314Y390737D01*
X259107Y391346D01*
X259716Y392139D01*
X260099Y393063D01*
X260230Y394055D01*
X260099Y395047D01*
X259716Y395971D01*
X259107Y396765D01*
X258314Y397374D01*
X257389Y397757D01*
X256398Y397887D01*
D02*
G37*
G36*
X220138Y396220D02*
X214508D01*
Y392362D01*
X217351D01*
X217622Y391867D01*
X217517Y391339D01*
X217622Y390810D01*
X217921Y390362D01*
X218369Y390063D01*
X218898Y389958D01*
X219426Y390063D01*
X219805Y390316D01*
X220112Y390248D01*
X220329Y390144D01*
X220354Y389942D01*
X220157Y389747D01*
X220092Y389734D01*
X219809Y389545D01*
X219004Y388740D01*
X214508D01*
Y384882D01*
X220138D01*
Y387410D01*
X220786Y388058D01*
X224011D01*
X224220Y387744D01*
X224668Y387445D01*
X224719Y387435D01*
X225150Y387004D01*
Y384705D01*
X224350D01*
X224350Y383012D01*
X223954Y382761D01*
X223949D01*
X223811Y382899D01*
X223528Y383088D01*
X223195Y383155D01*
X223094D01*
X223024Y383260D01*
X222576Y383559D01*
X222047Y383664D01*
X221519Y383559D01*
X221284Y383402D01*
X220783Y383661D01*
Y384071D01*
X217823D01*
Y381496D01*
X217323D01*
Y380996D01*
X213862D01*
Y378921D01*
X217421D01*
X217681Y378421D01*
X217524Y378186D01*
X217418Y377658D01*
X217524Y377129D01*
X217823Y376681D01*
X218176Y376445D01*
X218103Y375969D01*
X218093Y375945D01*
X214508D01*
Y372087D01*
X216452D01*
Y370630D01*
X214508D01*
Y366772D01*
X220138D01*
Y370630D01*
X218194D01*
Y372087D01*
X220138D01*
Y373291D01*
X220301Y373400D01*
X223934Y377033D01*
X224350Y376762D01*
X224350Y376582D01*
Y375484D01*
X223794Y374927D01*
X223605Y374644D01*
X223538Y374311D01*
Y373488D01*
X223433Y373417D01*
X223134Y372969D01*
X223029Y372441D01*
X223134Y371913D01*
X223433Y371464D01*
X223881Y371165D01*
X224410Y371060D01*
X224938Y371165D01*
X225386Y371464D01*
X225685Y371913D01*
X225790Y372441D01*
X225685Y372969D01*
X225386Y373417D01*
X225315Y373465D01*
X225288Y373957D01*
X226468Y375138D01*
X227815D01*
X227815Y376969D01*
X227815Y377331D01*
X227815Y378937D01*
X227815Y379299D01*
Y380768D01*
X227815D01*
Y381043D01*
X227815D01*
X227815Y382874D01*
X227815Y383236D01*
Y384705D01*
X226892D01*
Y387365D01*
X226826Y387698D01*
X226637Y387981D01*
X226454Y388164D01*
X226473Y388192D01*
X226578Y388720D01*
X226473Y389249D01*
X226173Y389697D01*
X225725Y389996D01*
X225197Y390101D01*
X224842Y390031D01*
X224439Y390306D01*
X224370Y390398D01*
Y395728D01*
X220512D01*
X220138Y396033D01*
Y396220D01*
D02*
G37*
G36*
X216823Y384071D02*
X213862D01*
Y381996D01*
X216823D01*
Y384071D01*
D02*
G37*
G36*
X260842Y378500D02*
X256898D01*
Y374555D01*
X260842D01*
Y378500D01*
D02*
G37*
G36*
Y373555D02*
X256898D01*
Y369610D01*
X260842D01*
Y373555D01*
D02*
G37*
G36*
X255898D02*
X251953D01*
Y369610D01*
X255898D01*
Y373555D01*
D02*
G37*
G36*
X239429Y352913D02*
X233799D01*
Y351855D01*
X233130D01*
Y352913D01*
X227500D01*
Y351074D01*
X226288Y349862D01*
X223760D01*
Y346988D01*
X227421D01*
Y348532D01*
X227944Y349055D01*
X233130D01*
Y350113D01*
X233799D01*
Y349055D01*
X239429D01*
Y352913D01*
D02*
G37*
G36*
X234252Y346942D02*
X233311Y346819D01*
X232434Y346456D01*
X231681Y345878D01*
X231104Y345125D01*
X230740Y344248D01*
X230731Y344178D01*
X229429D01*
X229201Y344133D01*
X228847Y344324D01*
X228701Y344449D01*
Y344843D01*
X223858D01*
Y337835D01*
X228701D01*
Y341347D01*
X229790Y342436D01*
X230731D01*
X230740Y342366D01*
X231104Y341489D01*
X231681Y340737D01*
X232434Y340159D01*
X233311Y339795D01*
X234252Y339672D01*
X235193Y339795D01*
X236070Y340159D01*
X236823Y340737D01*
X237400Y341489D01*
X237764Y342366D01*
X237887Y343307D01*
X237764Y344248D01*
X237400Y345125D01*
X236823Y345878D01*
X236070Y346456D01*
X235193Y346819D01*
X234252Y346942D01*
D02*
G37*
G36*
X249622Y342339D02*
X245776D01*
Y340264D01*
X249622D01*
Y342339D01*
D02*
G37*
G36*
X244776D02*
X240929D01*
Y340264D01*
X244776D01*
Y342339D01*
D02*
G37*
G36*
X217610Y326984D02*
X213665D01*
Y324319D01*
X217610D01*
Y326984D01*
D02*
G37*
G36*
X251862D02*
X244595D01*
Y323819D01*
Y320654D01*
X251862D01*
Y323819D01*
Y326984D01*
D02*
G37*
G36*
X243595D02*
X235933D01*
Y323819D01*
Y320654D01*
X243595D01*
Y323819D01*
Y326984D01*
D02*
G37*
G36*
X234933D02*
X227272D01*
Y323819D01*
Y320654D01*
X234933D01*
Y323819D01*
Y326984D01*
D02*
G37*
G36*
X226272D02*
X218610D01*
Y323819D01*
Y320654D01*
X226272D01*
Y323819D01*
Y326984D01*
D02*
G37*
G36*
X217610Y323319D02*
X213665D01*
Y320654D01*
X217610D01*
Y323319D01*
D02*
G37*
G36*
X241583Y319288D02*
Y315618D01*
X245253D01*
X245175Y316214D01*
X244751Y317236D01*
X244078Y318114D01*
X243201Y318787D01*
X242179Y319210D01*
X241583Y319288D01*
D02*
G37*
G36*
X240583D02*
X239986Y319210D01*
X238965Y318787D01*
X238087Y318114D01*
X237414Y317236D01*
X236991Y316214D01*
X236912Y315618D01*
X240583D01*
Y319288D01*
D02*
G37*
G36*
X222452Y318613D02*
X215343D01*
Y311505D01*
X222452D01*
Y318613D01*
D02*
G37*
G36*
X228898Y318644D02*
X227970Y318522D01*
X227105Y318164D01*
X226363Y317594D01*
X225793Y316852D01*
X225435Y315987D01*
X225313Y315059D01*
X225435Y314131D01*
X225793Y313267D01*
X226363Y312524D01*
X227105Y311954D01*
X227970Y311596D01*
X228898Y311474D01*
X229825Y311596D01*
X230690Y311954D01*
X231433Y312524D01*
X232002Y313267D01*
X232361Y314131D01*
X232483Y315059D01*
X232361Y315987D01*
X232002Y316852D01*
X231433Y317594D01*
X230690Y318164D01*
X229825Y318522D01*
X228898Y318644D01*
D02*
G37*
G36*
X245253Y314618D02*
X241583D01*
Y310948D01*
X242179Y311026D01*
X243201Y311449D01*
X244078Y312123D01*
X244751Y313000D01*
X245175Y314022D01*
X245253Y314618D01*
D02*
G37*
G36*
X240583D02*
X236912D01*
X236991Y314022D01*
X237414Y313000D01*
X238087Y312123D01*
X238965Y311449D01*
X239986Y311026D01*
X240583Y310948D01*
Y314618D01*
D02*
G37*
G36*
X251083Y308703D02*
X250155Y308581D01*
X249290Y308223D01*
X248548Y307653D01*
X247978Y306911D01*
X247620Y306046D01*
X247498Y305118D01*
X247620Y304190D01*
X247978Y303326D01*
X248548Y302583D01*
X249290Y302013D01*
X250155Y301655D01*
X251083Y301533D01*
X252011Y301655D01*
X252875Y302013D01*
X253618Y302583D01*
X254187Y303326D01*
X254545Y304190D01*
X254668Y305118D01*
X254545Y306046D01*
X254187Y306911D01*
X253618Y307653D01*
X252875Y308223D01*
X252011Y308581D01*
X251083Y308703D01*
D02*
G37*
G36*
X241083D02*
X240155Y308581D01*
X239290Y308223D01*
X238548Y307653D01*
X237978Y306911D01*
X237620Y306046D01*
X237498Y305118D01*
X237620Y304190D01*
X237978Y303326D01*
X238548Y302583D01*
X239290Y302013D01*
X240155Y301655D01*
X241083Y301533D01*
X242011Y301655D01*
X242875Y302013D01*
X243618Y302583D01*
X244187Y303326D01*
X244546Y304190D01*
X244668Y305118D01*
X244546Y306046D01*
X244187Y306911D01*
X243618Y307653D01*
X242875Y308223D01*
X242011Y308581D01*
X241083Y308703D01*
D02*
G37*
G36*
X228898Y308644D02*
X227970Y308522D01*
X227105Y308164D01*
X226363Y307594D01*
X225793Y306852D01*
X225435Y305987D01*
X225313Y305059D01*
X225435Y304131D01*
X225793Y303267D01*
X226363Y302524D01*
X227105Y301954D01*
X227970Y301596D01*
X228898Y301474D01*
X229825Y301596D01*
X230690Y301954D01*
X231433Y302524D01*
X232002Y303267D01*
X232361Y304131D01*
X232483Y305059D01*
X232361Y305987D01*
X232002Y306852D01*
X231433Y307594D01*
X230690Y308164D01*
X229825Y308522D01*
X228898Y308644D01*
D02*
G37*
G36*
X218898D02*
X217970Y308522D01*
X217105Y308164D01*
X216363Y307594D01*
X215793Y306852D01*
X215435Y305987D01*
X215313Y305059D01*
X215435Y304131D01*
X215793Y303267D01*
X216363Y302524D01*
X217105Y301954D01*
X217970Y301596D01*
X218898Y301474D01*
X219826Y301596D01*
X220690Y301954D01*
X221433Y302524D01*
X222002Y303267D01*
X222360Y304131D01*
X222483Y305059D01*
X222360Y305987D01*
X222002Y306852D01*
X221433Y307594D01*
X220690Y308164D01*
X219826Y308522D01*
X218898Y308644D01*
D02*
G37*
G36*
X219398Y299230D02*
Y295559D01*
X223068D01*
X222990Y296156D01*
X222566Y297177D01*
X221893Y298055D01*
X221016Y298728D01*
X219994Y299151D01*
X219398Y299230D01*
D02*
G37*
G36*
X218398D02*
X217801Y299151D01*
X216779Y298728D01*
X215902Y298055D01*
X215229Y297177D01*
X214806Y296156D01*
X214727Y295559D01*
X218398D01*
Y299230D01*
D02*
G37*
G36*
X254637Y298672D02*
X247528D01*
Y291564D01*
X254637D01*
Y298672D01*
D02*
G37*
G36*
X241083Y298703D02*
X240155Y298581D01*
X239290Y298223D01*
X238548Y297653D01*
X237978Y296911D01*
X237620Y296046D01*
X237498Y295118D01*
X237620Y294190D01*
X237978Y293326D01*
X238548Y292583D01*
X239290Y292013D01*
X240155Y291655D01*
X241083Y291533D01*
X242011Y291655D01*
X242875Y292013D01*
X243618Y292583D01*
X244187Y293326D01*
X244546Y294190D01*
X244668Y295118D01*
X244546Y296046D01*
X244187Y296911D01*
X243618Y297653D01*
X242875Y298223D01*
X242011Y298581D01*
X241083Y298703D01*
D02*
G37*
G36*
X228898Y298644D02*
X227970Y298522D01*
X227105Y298164D01*
X226363Y297594D01*
X225793Y296852D01*
X225435Y295987D01*
X225313Y295059D01*
X225435Y294131D01*
X225793Y293267D01*
X226363Y292524D01*
X227105Y291954D01*
X227970Y291596D01*
X228898Y291474D01*
X229825Y291596D01*
X230690Y291954D01*
X231433Y292524D01*
X232002Y293267D01*
X232361Y294131D01*
X232483Y295059D01*
X232361Y295987D01*
X232002Y296852D01*
X231433Y297594D01*
X230690Y298164D01*
X229825Y298522D01*
X228898Y298644D01*
D02*
G37*
G36*
X223068Y294559D02*
X219398D01*
Y290889D01*
X219994Y290967D01*
X221016Y291390D01*
X221893Y292064D01*
X222566Y292941D01*
X222990Y293963D01*
X223068Y294559D01*
D02*
G37*
G36*
X218398D02*
X214727D01*
X214806Y293963D01*
X215229Y292941D01*
X215902Y292064D01*
X216779Y291390D01*
X217801Y290967D01*
X218398Y290889D01*
Y294559D01*
D02*
G37*
G36*
X256201Y289174D02*
X254978Y289013D01*
X253838Y288541D01*
X252859Y287790D01*
X252108Y286812D01*
X251636Y285672D01*
X251475Y284449D01*
X251636Y283226D01*
X252108Y282086D01*
X252859Y281107D01*
X253838Y280356D01*
X254978Y279884D01*
X256201Y279723D01*
X257424Y279884D01*
X258563Y280356D01*
X259542Y281107D01*
X260293Y282086D01*
X260765Y283226D01*
X260926Y284449D01*
X260765Y285672D01*
X260293Y286812D01*
X259542Y287790D01*
X258563Y288541D01*
X257424Y289013D01*
X256201Y289174D01*
D02*
G37*
G36*
X218996Y288879D02*
X217773Y288718D01*
X216633Y288246D01*
X215655Y287495D01*
X214904Y286516D01*
X214432Y285377D01*
X214271Y284154D01*
X214432Y282930D01*
X214904Y281791D01*
X215655Y280812D01*
X216633Y280061D01*
X217773Y279589D01*
X218996Y279428D01*
X220219Y279589D01*
X221359Y280061D01*
X222338Y280812D01*
X223088Y281791D01*
X223561Y282930D01*
X223722Y284154D01*
X223561Y285377D01*
X223088Y286516D01*
X222338Y287495D01*
X221359Y288246D01*
X220219Y288718D01*
X218996Y288879D01*
D02*
G37*
%LPD*%
G36*
X219882Y430614D02*
X218504Y429236D01*
X217126Y430614D01*
Y432583D01*
X219882D01*
Y430614D01*
D02*
G37*
G36*
X222740Y426968D02*
X220772D01*
X219394Y428346D01*
X220772Y429724D01*
X222740D01*
Y426968D01*
D02*
G37*
G36*
X217614Y428346D02*
X216236Y426968D01*
X214268D01*
Y429724D01*
X216236D01*
X217614Y428346D01*
D02*
G37*
G36*
X219882Y426079D02*
Y424110D01*
X217126D01*
Y426079D01*
X218504Y427457D01*
X219882Y426079D01*
D02*
G37*
G36*
X222219Y416707D02*
X222501Y416518D01*
X222835Y416452D01*
X225725D01*
X225795Y416346D01*
X226243Y416047D01*
X226772Y415942D01*
X227060Y415999D01*
X229567Y413492D01*
Y411752D01*
X229567D01*
Y411673D01*
X229567D01*
Y409366D01*
X228921D01*
Y408472D01*
X228421Y408259D01*
X227946Y408577D01*
X227665Y408633D01*
Y406693D01*
X226665D01*
Y408633D01*
X226385Y408577D01*
X225723Y408135D01*
X225281Y407473D01*
X225264Y407385D01*
X224764Y407434D01*
X224764Y408720D01*
X224764Y409221D01*
X224764Y411673D01*
X224764Y412173D01*
Y414626D01*
X223023D01*
X221876Y415773D01*
X221593Y415962D01*
X221260Y416028D01*
X218370D01*
X218299Y416134D01*
X217851Y416433D01*
X217674Y416468D01*
X217723Y416968D01*
X220138D01*
Y418027D01*
X220899D01*
X222219Y416707D01*
D02*
G37*
D10*
X235827Y370866D02*
X238386Y368307D01*
X242028Y358760D02*
Y359941D01*
X233169Y366929D02*
X235335Y364764D01*
X231890Y365650D02*
X234301Y363238D01*
X231890Y365650D02*
X233169Y366929D01*
X230217Y359744D02*
X230315D01*
X230807D01*
X224410Y388929D02*
X225150Y388189D01*
X229528Y392520D02*
X229528Y392520D01*
X245866Y380906D02*
Y381201D01*
X246457Y377953D02*
X249807Y381303D01*
X241634Y375984D02*
X248425D01*
X232776Y369094D02*
X233858Y370177D01*
X227756Y369094D02*
X232776D01*
X233858Y370177D02*
X233858D01*
X235827Y370866D02*
Y372146D01*
X241929Y368701D02*
X244488Y371260D01*
X246654D01*
X247047Y362598D02*
X249717Y365268D01*
Y371278D01*
X241929Y366732D02*
X243898Y364764D01*
X241929Y366732D02*
Y368701D01*
X227165Y368504D02*
X227756Y369094D01*
X227165Y365059D02*
Y368504D01*
X233858Y370177D02*
Y372146D01*
X226378Y359744D02*
X230217D01*
X230315Y358465D02*
Y359744D01*
X230807D02*
X234301Y363238D01*
X238386Y364764D02*
Y368307D01*
X242520Y418898D02*
Y421752D01*
X249807Y381303D02*
Y411610D01*
X242520Y418898D02*
X249807Y411610D01*
X247807Y386390D02*
Y410533D01*
X238461Y417051D02*
X245807Y409705D01*
Y388032D02*
Y409705D01*
X247244Y411096D02*
X247807Y410533D01*
X236639Y421752D02*
X247244Y411147D01*
Y411096D02*
Y411147D01*
X232087Y343307D02*
X234252Y341142D01*
X247047Y362598D02*
X249410Y360236D01*
X243307Y381890D02*
X247807Y386390D01*
X241634Y379921D02*
X244882D01*
X245866Y380906D01*
Y380781D02*
Y380906D01*
X241634Y377953D02*
X246457D01*
X241634Y381890D02*
X243307D01*
X249410Y358661D02*
Y360236D01*
X250295Y315158D02*
X255390Y320252D01*
X256527D01*
X257677Y321402D01*
Y340748D01*
X245276Y353150D02*
X257677Y340748D01*
X248425Y375984D02*
X256299Y383858D01*
X215748Y405512D02*
X216535Y406299D01*
X215748Y405512D02*
X216535Y404724D01*
X242520Y392913D02*
X243307Y393701D01*
Y397638D01*
X222047Y382283D02*
X223195D01*
X223588Y381890D01*
X245276Y354528D02*
X249410Y358661D01*
X245276Y353150D02*
Y354528D01*
X238386Y363583D02*
X242028Y359941D01*
X238386Y363583D02*
Y364764D01*
X234252Y341142D02*
Y343307D01*
X228642Y358465D02*
X230315D01*
Y350984D02*
X236221D01*
X228642D02*
X230315D01*
X216437Y355906D02*
Y360335D01*
Y341929D02*
Y348425D01*
X234646Y431102D02*
Y432579D01*
X221067Y429012D02*
X221732Y428346D01*
X242520Y430709D02*
Y432579D01*
X223228Y398425D02*
X225559D01*
X226741Y397243D02*
X226771D01*
X225559Y398425D02*
X226741Y397243D01*
X226969Y417323D02*
X231102Y413189D01*
X226772Y417323D02*
X226969D01*
X222835D02*
X226772D01*
X221260Y418898D02*
X222835Y417323D01*
X217323Y418898D02*
X221260D01*
X217323Y401181D02*
X219291Y403150D01*
X217323Y399606D02*
Y401181D01*
Y407087D02*
X219040D01*
X221426Y404701D01*
X222071D02*
X222441Y404331D01*
X221426Y404701D02*
X222071D01*
X217323Y407087D02*
X218110Y406299D01*
X216535Y404724D02*
Y406299D01*
X217323Y407087D01*
X221063Y394291D02*
X222441Y392913D01*
X217323Y394291D02*
X221063D01*
X226378Y392520D02*
X229528D01*
X241339Y399606D02*
X243307Y397638D01*
X241339Y399606D02*
Y400197D01*
Y407677D02*
Y408661D01*
X236024Y413976D02*
X241339Y408661D01*
X237795Y404134D02*
X241339Y407677D01*
X236024Y404134D02*
X237795D01*
X235827Y404331D02*
X236024Y404134D01*
X231102Y404331D02*
X235827D01*
X235236Y413189D02*
X236024Y413976D01*
X231102Y413189D02*
X235236D01*
X227756Y407283D02*
X231102D01*
X227165Y406693D02*
X227756Y407283D01*
X229331Y401378D02*
X231102D01*
X223228D02*
X223819Y400787D01*
X227165Y403543D02*
Y406693D01*
X223819Y400787D02*
X226378D01*
X227165Y403543D02*
X229331Y401378D01*
X216437Y360335D02*
X217323Y361221D01*
X244094Y334449D02*
X244488D01*
X216831Y333760D02*
X217717Y334646D01*
X229429Y343307D02*
X232087D01*
X227461Y341339D02*
X229429Y343307D01*
X226083Y348425D02*
X228642Y350984D01*
X226083Y355906D02*
X228642Y358465D01*
X226673Y341339D02*
X227461D01*
X231890Y428346D02*
X234646Y431102D01*
X221732Y428346D02*
X231890D01*
X237280Y425468D02*
X242520Y430709D01*
X219020Y425468D02*
X237280D01*
X235827Y421752D02*
X236639D01*
X234646D02*
X235827D01*
X230587Y417051D02*
X238461D01*
X226772Y420866D02*
X230587Y417051D01*
X235335Y364764D02*
X238386D01*
X225197Y388189D02*
Y388236D01*
X225150Y388189D02*
X225197Y388236D01*
Y388189D02*
X226021Y387365D01*
X231102Y407283D02*
X232874D01*
X234055Y408465D01*
X236024D01*
X231102Y401378D02*
X233268D01*
X236024Y398622D01*
X215354Y427760D02*
X215941Y428346D01*
X215354Y422835D02*
Y427760D01*
X216339Y386811D02*
X217323D01*
X219020Y425468D02*
X219291Y425197D01*
X218504Y431110D02*
X219972Y432579D01*
X226772D01*
X226021Y384202D02*
Y387365D01*
X220425Y388929D02*
X224410D01*
X237795Y392717D02*
X237992Y392913D01*
X217323Y368701D02*
Y374016D01*
Y386811D02*
X218307D01*
X229528Y392520D02*
X229921Y392913D01*
X235236D02*
X237992D01*
X221260Y415158D02*
X223228Y413189D01*
X217323Y415158D02*
X221260D01*
X218307Y386811D02*
X220425Y388929D01*
X217323Y411417D02*
Y415158D01*
X216437Y355906D02*
X218504D01*
X220276Y354134D01*
Y351181D02*
Y354134D01*
X217520Y348425D02*
X220276Y351181D01*
X216437Y348425D02*
X217520D01*
X217323Y394291D02*
X218898Y392717D01*
Y391339D02*
Y392717D01*
X237795Y387697D02*
Y392717D01*
X229921Y387697D02*
Y390575D01*
X224410Y372441D02*
Y374311D01*
X226051Y375953D01*
X217323Y374016D02*
X219685D01*
X223588Y381890D02*
X226083D01*
X241665Y383890D02*
X245807Y388032D01*
X219685Y374016D02*
X223622Y377953D01*
X226083D01*
X226772Y420866D02*
Y421752D01*
X225197Y388236D02*
Y388720D01*
X222835Y379921D02*
X226083D01*
X218799Y377658D02*
X220571D01*
X222835Y379921D01*
X212598Y277854D02*
Y437008D01*
Y277854D02*
X262598D01*
Y437008D01*
X212598D02*
X262598D01*
D14*
X252362Y323819D02*
D03*
Y334449D02*
D03*
X244094Y323819D02*
D03*
Y334449D02*
D03*
X218110Y323819D02*
D03*
Y334449D02*
D03*
X235433Y323819D02*
D03*
Y334449D02*
D03*
X226772Y323819D02*
D03*
Y334449D02*
D03*
D15*
X235039Y392913D02*
D03*
X242520D02*
D03*
X229921D02*
D03*
X222441D02*
D03*
X249311Y359252D02*
D03*
X241831D02*
D03*
D16*
X241339Y407677D02*
D03*
Y400197D02*
D03*
X217323Y368701D02*
D03*
Y361221D02*
D03*
Y381496D02*
D03*
Y374016D02*
D03*
X230315Y350984D02*
D03*
Y358465D02*
D03*
X236614Y350984D02*
D03*
Y358465D02*
D03*
X217323Y411417D02*
D03*
Y418898D02*
D03*
X217323Y407087D02*
D03*
Y399606D02*
D03*
Y386811D02*
D03*
Y394291D02*
D03*
D17*
X236024Y413976D02*
D03*
Y408465D02*
D03*
Y404134D02*
D03*
Y398622D02*
D03*
D18*
X223228Y407283D02*
D03*
Y410236D02*
D03*
Y413189D02*
D03*
X231102D02*
D03*
Y410236D02*
D03*
Y407283D02*
D03*
Y404331D02*
D03*
Y401378D02*
D03*
Y398425D02*
D03*
X223228Y404331D02*
D03*
Y401378D02*
D03*
Y398425D02*
D03*
D19*
X215453Y341339D02*
D03*
X226279D02*
D03*
D20*
X225590Y355906D02*
D03*
Y348425D02*
D03*
X215945D02*
D03*
Y352165D02*
D03*
Y355906D02*
D03*
D21*
X226083Y383858D02*
D03*
Y381890D02*
D03*
Y379921D02*
D03*
Y377953D02*
D03*
Y375984D02*
D03*
X241634D02*
D03*
Y377953D02*
D03*
Y379921D02*
D03*
Y381890D02*
D03*
Y383858D02*
D03*
D22*
X229921Y372146D02*
D03*
X231890D02*
D03*
X233858D02*
D03*
X235827D02*
D03*
X237795D02*
D03*
Y387697D02*
D03*
X235827D02*
D03*
X233858D02*
D03*
X231890D02*
D03*
X229921D02*
D03*
D23*
X233858Y379921D02*
D03*
D24*
X245276Y353150D02*
D03*
Y339764D02*
D03*
D25*
X243898Y364764D02*
D03*
X238386D02*
D03*
D26*
X227559Y432579D02*
D03*
Y421752D02*
D03*
X244094Y432579D02*
D03*
Y421752D02*
D03*
X235827Y432579D02*
D03*
Y421752D02*
D03*
D27*
X218504Y425783D02*
D03*
X215941Y428346D02*
D03*
X218504Y430909D02*
D03*
X221067Y428346D02*
D03*
D28*
X237992Y368701D02*
D03*
X241929D02*
D03*
D29*
X233268Y364764D02*
D03*
X227165D02*
D03*
D53*
X256398Y394055D02*
D03*
Y384055D02*
D03*
D54*
Y374055D02*
D03*
D55*
X251083Y315118D02*
D03*
X241083D02*
D03*
X251083Y305118D02*
D03*
X241083D02*
D03*
Y295118D02*
D03*
X218898Y295059D02*
D03*
X228898D02*
D03*
X218898Y305059D02*
D03*
X228898D02*
D03*
Y315059D02*
D03*
D56*
X251083Y295118D02*
D03*
X218898Y315059D02*
D03*
D57*
X256201Y284449D02*
D03*
X218996Y284154D02*
D03*
X256004Y429724D02*
D03*
D58*
X256594Y416732D02*
D03*
X256496Y405709D02*
D03*
X234252Y343307D02*
D03*
D59*
X245866Y381201D02*
D03*
X249717Y371278D02*
D03*
X246654Y371260D02*
D03*
X226378Y359744D02*
D03*
X222047Y382283D02*
D03*
X226772Y417323D02*
D03*
X216535Y404724D02*
D03*
X226378Y392520D02*
D03*
X219291Y403150D02*
D03*
X226378Y400787D02*
D03*
X227165Y406693D02*
D03*
X243307Y397638D02*
D03*
X224410Y372441D02*
D03*
X226771Y397243D02*
D03*
X215354Y422835D02*
D03*
X237992Y392913D02*
D03*
X217323Y415158D02*
D03*
X218898Y391339D02*
D03*
X218799Y377658D02*
D03*
X225197Y388720D02*
D03*
D60*
X231693Y382087D02*
D03*
X236024D02*
D03*
X231693Y377756D02*
D03*
X236024D02*
D03*
M02*
