G04*
G04 #@! TF.GenerationSoftware,Altium Limited,Altium Designer,18.0.12 (696)*
G04*
G04 Layer_Physical_Order=2*
G04 Layer_Color=16711680*
%FSLAX25Y25*%
%MOIN*%
G70*
G01*
G75*
%ADD10C,0.01000*%
%ADD53C,0.06890*%
%ADD54R,0.06890X0.06890*%
%ADD55C,0.06400*%
%ADD56R,0.06400X0.06400*%
%ADD57C,0.06000*%
%ADD58C,0.06500*%
%ADD59C,0.02000*%
%ADD60C,0.01968*%
G36*
X262598Y277854D02*
X212598Y277854D01*
X212598Y382795D01*
X213098Y382946D01*
X213164Y382849D01*
X216510Y379502D01*
X217645Y378367D01*
X217524Y378186D01*
X217418Y377658D01*
X217524Y377129D01*
X217823Y376681D01*
X218271Y376382D01*
X218799Y376277D01*
X219328Y376382D01*
X219776Y376681D01*
X220075Y377129D01*
X220180Y377658D01*
X220075Y378186D01*
X219776Y378634D01*
X219338Y378926D01*
X219309Y379074D01*
X219120Y379356D01*
X217742Y380734D01*
X214651Y383825D01*
Y386612D01*
X215151Y386661D01*
X215199Y386419D01*
X215388Y386137D01*
X219857Y381667D01*
X220139Y381479D01*
X220473Y381412D01*
X221000D01*
X221071Y381307D01*
X221519Y381008D01*
X222047Y380903D01*
X222576Y381008D01*
X223024Y381307D01*
X223323Y381755D01*
X223428Y382283D01*
X223323Y382812D01*
X223024Y383260D01*
X222576Y383559D01*
X222047Y383664D01*
X221519Y383559D01*
X221071Y383260D01*
X220580Y383408D01*
X216875Y387113D01*
Y389866D01*
X217375Y390018D01*
X217456Y389897D01*
X218117Y389455D01*
X218398Y389399D01*
Y391339D01*
Y393278D01*
X218117Y393223D01*
X217456Y392780D01*
X217375Y392659D01*
X216875Y392811D01*
Y403411D01*
X217064Y403449D01*
X217512Y403748D01*
X217523Y403765D01*
X217994Y403570D01*
X217911Y403150D01*
X218016Y402621D01*
X218315Y402173D01*
X218763Y401874D01*
X219291Y401769D01*
X219820Y401874D01*
X220268Y402173D01*
X220567Y402621D01*
X220672Y403150D01*
X220648Y403274D01*
X227388Y410014D01*
X227576Y410297D01*
X227643Y410630D01*
Y416276D01*
X227748Y416346D01*
X228047Y416794D01*
X228152Y417323D01*
X228047Y417851D01*
X227748Y418299D01*
X227300Y418599D01*
X226772Y418704D01*
X226243Y418599D01*
X225795Y418299D01*
X225496Y417851D01*
X225391Y417323D01*
X225496Y416794D01*
X225795Y416346D01*
X225901Y416276D01*
Y410991D01*
X219416Y404506D01*
X219291Y404530D01*
X218763Y404425D01*
X218315Y404126D01*
X218304Y404109D01*
X217833Y404304D01*
X217916Y404724D01*
X217811Y405253D01*
X217512Y405701D01*
X217064Y406000D01*
X216535Y406105D01*
X216256Y406050D01*
X216010Y406511D01*
X217939Y408439D01*
X218128Y408722D01*
X218194Y409055D01*
Y414111D01*
X218299Y414181D01*
X218599Y414629D01*
X218704Y415158D01*
X218599Y415686D01*
X218299Y416134D01*
X217851Y416433D01*
X217323Y416538D01*
X216794Y416433D01*
X216346Y416134D01*
X216047Y415686D01*
X215942Y415158D01*
X216047Y414629D01*
X216346Y414181D01*
X216452Y414111D01*
Y409416D01*
X213164Y406128D01*
X213098Y406030D01*
X212598Y406182D01*
Y437008D01*
X262598Y437008D01*
X262598Y277854D01*
D02*
G37*
%LPC*%
G36*
X256004Y434450D02*
X254781Y434289D01*
X253641Y433817D01*
X252662Y433066D01*
X251912Y432087D01*
X251439Y430947D01*
X251278Y429724D01*
X251439Y428501D01*
X251912Y427362D01*
X252662Y426383D01*
X253641Y425632D01*
X254781Y425160D01*
X256004Y424999D01*
X257227Y425160D01*
X258367Y425632D01*
X259345Y426383D01*
X260096Y427362D01*
X260568Y428501D01*
X260729Y429724D01*
X260568Y430947D01*
X260096Y432087D01*
X259345Y433066D01*
X258367Y433817D01*
X257227Y434289D01*
X256004Y434450D01*
D02*
G37*
G36*
X215854Y424774D02*
Y423335D01*
X217294D01*
X217238Y423615D01*
X216796Y424277D01*
X216135Y424719D01*
X215854Y424774D01*
D02*
G37*
G36*
X214854D02*
X214574Y424719D01*
X213912Y424277D01*
X213470Y423615D01*
X213415Y423335D01*
X214854D01*
Y424774D01*
D02*
G37*
G36*
X217294Y422335D02*
X215854D01*
Y420895D01*
X216135Y420951D01*
X216796Y421393D01*
X217238Y422054D01*
X217294Y422335D01*
D02*
G37*
G36*
X214854D02*
X213415D01*
X213470Y422054D01*
X213912Y421393D01*
X214574Y420951D01*
X214854Y420895D01*
Y422335D01*
D02*
G37*
G36*
X256594Y420368D02*
X255654Y420244D01*
X254777Y419881D01*
X254024Y419303D01*
X253446Y418550D01*
X253083Y417673D01*
X252959Y416732D01*
X253083Y415791D01*
X253216Y415471D01*
X250919Y413174D01*
X232972D01*
X232639Y413108D01*
X232357Y412919D01*
X227454Y408016D01*
X227165Y408074D01*
X226637Y407969D01*
X226189Y407669D01*
X225890Y407221D01*
X225784Y406693D01*
X225890Y406165D01*
X226189Y405717D01*
X226637Y405417D01*
X227165Y405312D01*
X227694Y405417D01*
X228142Y405717D01*
X228441Y406165D01*
X228534Y406633D01*
X233333Y411432D01*
X251279D01*
X251613Y411498D01*
X251895Y411687D01*
X254220Y414011D01*
X254777Y413584D01*
X255654Y413221D01*
X256594Y413097D01*
X257535Y413221D01*
X258412Y413584D01*
X259165Y414162D01*
X259743Y414915D01*
X260106Y415791D01*
X260230Y416732D01*
X260106Y417673D01*
X259743Y418550D01*
X259165Y419303D01*
X258412Y419881D01*
X257535Y420244D01*
X256594Y420368D01*
D02*
G37*
G36*
X256996Y409930D02*
Y406209D01*
X260717D01*
X260637Y406818D01*
X260208Y407852D01*
X259527Y408740D01*
X258639Y409421D01*
X257606Y409849D01*
X256996Y409930D01*
D02*
G37*
G36*
X255996D02*
X255387Y409849D01*
X254353Y409421D01*
X253465Y408740D01*
X252784Y407852D01*
X252356Y406818D01*
X252275Y406209D01*
X255996D01*
Y409930D01*
D02*
G37*
G36*
X260717Y405209D02*
X256996D01*
Y401488D01*
X257606Y401568D01*
X258639Y401996D01*
X259527Y402677D01*
X260208Y403565D01*
X260637Y404599D01*
X260717Y405209D01*
D02*
G37*
G36*
X255996D02*
X252275D01*
X252356Y404599D01*
X252784Y403565D01*
X253465Y402677D01*
X254353Y401996D01*
X255387Y401568D01*
X255996Y401488D01*
Y405209D01*
D02*
G37*
G36*
X243807Y399577D02*
Y398138D01*
X245247D01*
X245191Y398418D01*
X244749Y399080D01*
X244087Y399522D01*
X243807Y399577D01*
D02*
G37*
G36*
X256898Y398472D02*
Y394555D01*
X260815D01*
X260728Y395216D01*
X260280Y396297D01*
X259568Y397225D01*
X258639Y397938D01*
X257558Y398386D01*
X256898Y398472D01*
D02*
G37*
G36*
X255898Y398472D02*
X255237Y398386D01*
X254156Y397938D01*
X253227Y397225D01*
X252515Y396297D01*
X252067Y395216D01*
X251980Y394555D01*
X255898D01*
Y398472D01*
D02*
G37*
G36*
X228346Y404808D02*
X224803D01*
X224470Y404742D01*
X224187Y404553D01*
X221038Y401403D01*
X220849Y401121D01*
X220782Y400787D01*
Y393018D01*
X220533Y392884D01*
X220283Y392819D01*
X219678Y393223D01*
X219398Y393278D01*
Y391339D01*
Y389399D01*
X219678Y389455D01*
X220283Y389859D01*
X220533Y389793D01*
X220782Y389660D01*
Y388728D01*
X220849Y388395D01*
X221038Y388112D01*
X223774Y385376D01*
X224056Y385187D01*
X224390Y385121D01*
X226543D01*
X226877Y385187D01*
X227159Y385376D01*
X233825Y392042D01*
X236945D01*
X237016Y391937D01*
X237464Y391638D01*
X237992Y391532D01*
X238064Y391547D01*
X238436Y391215D01*
Y369020D01*
X238486Y368768D01*
X238284Y368578D01*
X238074Y368473D01*
X233490Y373057D01*
X233207Y373246D01*
X232874Y373312D01*
X225456D01*
X225386Y373417D01*
X224938Y373717D01*
X224410Y373822D01*
X223881Y373717D01*
X223433Y373417D01*
X223134Y372969D01*
X223029Y372441D01*
X223134Y371913D01*
X223433Y371464D01*
X223881Y371165D01*
X224410Y371060D01*
X224938Y371165D01*
X225386Y371464D01*
X225456Y371570D01*
X232513D01*
X248901Y355183D01*
Y324739D01*
X244890Y320728D01*
X233696D01*
X233363Y320662D01*
X233263Y320596D01*
X232944Y320984D01*
X234622Y322662D01*
X234811Y322944D01*
X234877Y323278D01*
X234877Y339754D01*
X235193Y339795D01*
X236070Y340159D01*
X236823Y340737D01*
X237400Y341489D01*
X237764Y342366D01*
X237887Y343307D01*
X237764Y344248D01*
X237400Y345125D01*
X236823Y345878D01*
X236070Y346456D01*
X235193Y346819D01*
X234252Y346942D01*
X233311Y346819D01*
X232434Y346456D01*
X231681Y345878D01*
X231104Y345125D01*
X230740Y344248D01*
X230616Y343307D01*
X230740Y342366D01*
X231104Y341489D01*
X231681Y340737D01*
X232434Y340159D01*
X233135Y339868D01*
X233135Y323638D01*
X230127Y320630D01*
X226951D01*
X226618Y320564D01*
X226335Y320375D01*
X222914Y316954D01*
X222452Y317145D01*
Y318613D01*
X215343D01*
Y311505D01*
X222452D01*
Y314028D01*
X225235Y316811D01*
X225659Y316528D01*
X225435Y315987D01*
X225313Y315059D01*
X225435Y314131D01*
X225793Y313267D01*
X226363Y312524D01*
X227105Y311954D01*
X227970Y311596D01*
X228898Y311474D01*
X229825Y311596D01*
X230690Y311954D01*
X231433Y312524D01*
X232002Y313267D01*
X232361Y314131D01*
X232483Y315059D01*
X232361Y315987D01*
X232002Y316852D01*
X231967Y316897D01*
X234057Y318986D01*
X239827D01*
X239927Y318486D01*
X239290Y318223D01*
X238548Y317653D01*
X237978Y316911D01*
X237620Y316046D01*
X237498Y315118D01*
X237620Y314190D01*
X237978Y313326D01*
X238548Y312583D01*
X239290Y312013D01*
X240155Y311655D01*
X241083Y311533D01*
X242011Y311655D01*
X242875Y312013D01*
X243618Y312583D01*
X243904Y312957D01*
X244405Y312787D01*
Y310499D01*
X242347Y308441D01*
X242011Y308581D01*
X241083Y308703D01*
X240155Y308581D01*
X239290Y308223D01*
X238548Y307653D01*
X237978Y306911D01*
X237620Y306046D01*
X237498Y305118D01*
X237620Y304190D01*
X237759Y303853D01*
X231496Y297590D01*
X231433Y297594D01*
X230690Y298164D01*
X229825Y298522D01*
X229484Y298567D01*
X229362Y299087D01*
X229446Y299143D01*
X229514Y299211D01*
X229702Y299493D01*
X229769Y299827D01*
Y301589D01*
X229825Y301596D01*
X230690Y301954D01*
X231433Y302524D01*
X232002Y303267D01*
X232361Y304131D01*
X232483Y305059D01*
X232361Y305987D01*
X232002Y306852D01*
X231433Y307594D01*
X230690Y308164D01*
X229825Y308522D01*
X228898Y308644D01*
X227970Y308522D01*
X227105Y308164D01*
X226363Y307594D01*
X225793Y306852D01*
X225435Y305987D01*
X225313Y305059D01*
X225435Y304131D01*
X225793Y303267D01*
X226363Y302524D01*
X227105Y301954D01*
X227970Y301596D01*
X228027Y301589D01*
Y300630D01*
X226137D01*
X225804Y300564D01*
X225521Y300375D01*
X223695Y298549D01*
X223506Y298266D01*
X223440Y297933D01*
Y292126D01*
X223506Y291793D01*
X223695Y291510D01*
X225462Y289743D01*
X225745Y289554D01*
X226078Y289488D01*
X230844D01*
X231178Y289554D01*
X231460Y289743D01*
X234214Y292496D01*
X234402Y292779D01*
X234469Y293112D01*
Y295271D01*
X239213Y300015D01*
X246024D01*
X246357Y300081D01*
X246640Y300270D01*
X248777Y302407D01*
X249290Y302013D01*
X250155Y301655D01*
X251083Y301533D01*
X252011Y301655D01*
X252875Y302013D01*
X253618Y302583D01*
X254187Y303326D01*
X254545Y304190D01*
X254668Y305118D01*
X254545Y306046D01*
X254187Y306911D01*
X253794Y307424D01*
X255931Y309561D01*
X256120Y309844D01*
X256186Y310177D01*
Y317644D01*
X256535Y317911D01*
X256669Y317948D01*
X256708Y317927D01*
Y302802D01*
X252578Y298672D01*
X247528D01*
Y291564D01*
X254637D01*
Y298267D01*
X258195Y301825D01*
X258383Y302108D01*
X258450Y302441D01*
Y318602D01*
X258383Y318936D01*
X258195Y319218D01*
X256808Y320605D01*
Y357941D01*
X256742Y358274D01*
X256553Y358557D01*
X244178Y370932D01*
Y380389D01*
X244678Y380541D01*
X244890Y380224D01*
X245338Y379925D01*
X245866Y379820D01*
X245990Y379845D01*
X248846Y376989D01*
Y372325D01*
X248741Y372254D01*
X248441Y371806D01*
X248438Y371792D01*
X247937Y371788D01*
X247928Y371790D01*
X247630Y372236D01*
X247182Y372536D01*
X246654Y372641D01*
X246125Y372536D01*
X245677Y372236D01*
X245378Y371788D01*
X245273Y371260D01*
X245378Y370731D01*
X245677Y370283D01*
X245932Y370113D01*
X246038Y369955D01*
X248173Y367819D01*
X248456Y367630D01*
X248789Y367564D01*
X250778D01*
X251111Y367630D01*
X251394Y367819D01*
X253830Y370256D01*
X260197D01*
Y377854D01*
X252598D01*
Y371488D01*
X250417Y369306D01*
X249150D01*
X248787Y369669D01*
X249106Y370057D01*
X249188Y370002D01*
X249717Y369897D01*
X250245Y370002D01*
X250693Y370302D01*
X250993Y370749D01*
X251098Y371278D01*
X250993Y371806D01*
X250693Y372254D01*
X250588Y372325D01*
Y377350D01*
X250522Y377683D01*
X250333Y377966D01*
X247222Y381077D01*
X247247Y381201D01*
X247142Y381729D01*
X246843Y382177D01*
X246395Y382476D01*
X245866Y382582D01*
X245338Y382476D01*
X244890Y382177D01*
X244678Y381861D01*
X244178Y382012D01*
Y394102D01*
X244112Y394436D01*
X243923Y394718D01*
X243512Y395129D01*
X243676Y395672D01*
X244087Y395754D01*
X244749Y396196D01*
X245191Y396857D01*
X245247Y397138D01*
X243307D01*
Y397638D01*
X242807D01*
Y399577D01*
X242527Y399522D01*
X241865Y399080D01*
X241423Y398418D01*
X241341Y398007D01*
X240799Y397842D01*
X240388Y398254D01*
X240105Y398443D01*
X239772Y398509D01*
X231299D01*
X230966Y398443D01*
X230683Y398254D01*
X226318Y393889D01*
X225850Y393795D01*
X225401Y393496D01*
X225102Y393048D01*
X225025Y392658D01*
X224525Y392707D01*
Y397505D01*
X225102Y398082D01*
X225495Y397772D01*
X225390Y397243D01*
X225495Y396715D01*
X225795Y396267D01*
X226243Y395968D01*
X226771Y395862D01*
X227300Y395968D01*
X227748Y396267D01*
X228047Y396715D01*
X228152Y397243D01*
X228127Y397368D01*
X229750Y398990D01*
X229939Y399273D01*
X230005Y399606D01*
Y403150D01*
X229939Y403483D01*
X229750Y403765D01*
X228962Y404553D01*
X228680Y404742D01*
X228346Y404808D01*
D02*
G37*
G36*
X260815Y393555D02*
X256898D01*
Y389638D01*
X257558Y389725D01*
X258639Y390173D01*
X259568Y390885D01*
X260280Y391813D01*
X260728Y392895D01*
X260815Y393555D01*
D02*
G37*
G36*
X255898D02*
X251980D01*
X252067Y392895D01*
X252515Y391813D01*
X253227Y390885D01*
X254156Y390173D01*
X255237Y389725D01*
X255898Y389638D01*
Y393555D01*
D02*
G37*
G36*
X236024Y383451D02*
X235501Y383348D01*
X235059Y383052D01*
X234763Y382609D01*
X234659Y382087D01*
X234763Y381564D01*
X235059Y381121D01*
X235501Y380826D01*
X236024Y380722D01*
X236546Y380826D01*
X236989Y381121D01*
X237284Y381564D01*
X237388Y382087D01*
X237284Y382609D01*
X236989Y383052D01*
X236546Y383348D01*
X236024Y383451D01*
D02*
G37*
G36*
X231693D02*
X231171Y383348D01*
X230728Y383052D01*
X230432Y382609D01*
X230328Y382087D01*
X230432Y381564D01*
X230728Y381121D01*
X231171Y380826D01*
X231693Y380722D01*
X232215Y380826D01*
X232658Y381121D01*
X232954Y381564D01*
X233058Y382087D01*
X232954Y382609D01*
X232658Y383052D01*
X232215Y383348D01*
X231693Y383451D01*
D02*
G37*
G36*
X256398Y387887D02*
X255406Y387756D01*
X254482Y387374D01*
X253688Y386765D01*
X253079Y385971D01*
X252696Y385047D01*
X252566Y384055D01*
X252696Y383063D01*
X253079Y382139D01*
X253688Y381346D01*
X254482Y380736D01*
X255406Y380354D01*
X256398Y380223D01*
X257389Y380354D01*
X258314Y380736D01*
X259107Y381346D01*
X259716Y382139D01*
X260099Y383063D01*
X260230Y384055D01*
X260099Y385047D01*
X259716Y385971D01*
X259107Y386765D01*
X258314Y387374D01*
X257389Y387756D01*
X256398Y387887D01*
D02*
G37*
G36*
X236024Y379121D02*
X235501Y379017D01*
X235059Y378721D01*
X234763Y378278D01*
X234659Y377756D01*
X234763Y377234D01*
X235059Y376791D01*
X235501Y376495D01*
X236024Y376391D01*
X236546Y376495D01*
X236989Y376791D01*
X237284Y377234D01*
X237388Y377756D01*
X237284Y378278D01*
X236989Y378721D01*
X236546Y379017D01*
X236024Y379121D01*
D02*
G37*
G36*
X231693D02*
X231171Y379017D01*
X230728Y378721D01*
X230432Y378278D01*
X230328Y377756D01*
X230432Y377234D01*
X230728Y376791D01*
X231171Y376495D01*
X231693Y376391D01*
X232215Y376495D01*
X232658Y376791D01*
X232954Y377234D01*
X233058Y377756D01*
X232954Y378278D01*
X232658Y378721D01*
X232215Y379017D01*
X231693Y379121D01*
D02*
G37*
G36*
X226878Y361684D02*
Y360244D01*
X228318D01*
X228262Y360524D01*
X227820Y361186D01*
X227158Y361628D01*
X226878Y361684D01*
D02*
G37*
G36*
X225878D02*
X225598Y361628D01*
X224936Y361186D01*
X224494Y360524D01*
X224438Y360244D01*
X225878D01*
Y361684D01*
D02*
G37*
G36*
X228318Y359244D02*
X226878D01*
Y357804D01*
X227158Y357860D01*
X227820Y358302D01*
X228262Y358964D01*
X228318Y359244D01*
D02*
G37*
G36*
X225878D02*
X224438D01*
X224494Y358964D01*
X224936Y358302D01*
X225598Y357860D01*
X225878Y357804D01*
Y359244D01*
D02*
G37*
G36*
X219398Y309229D02*
Y305559D01*
X223068D01*
X222990Y306155D01*
X222566Y307177D01*
X221893Y308054D01*
X221016Y308728D01*
X219994Y309151D01*
X219398Y309229D01*
D02*
G37*
G36*
X218398D02*
X217801Y309151D01*
X216779Y308728D01*
X215902Y308054D01*
X215229Y307177D01*
X214806Y306155D01*
X214727Y305559D01*
X218398D01*
Y309229D01*
D02*
G37*
G36*
X223068Y304559D02*
X219398D01*
Y300889D01*
X219994Y300967D01*
X221016Y301390D01*
X221893Y302064D01*
X222566Y302941D01*
X222990Y303963D01*
X223068Y304559D01*
D02*
G37*
G36*
X218398D02*
X214727D01*
X214806Y303963D01*
X215229Y302941D01*
X215902Y302064D01*
X216779Y301390D01*
X217801Y300967D01*
X218398Y300889D01*
Y304559D01*
D02*
G37*
G36*
X241583Y299289D02*
Y295618D01*
X245253D01*
X245175Y296215D01*
X244751Y297236D01*
X244078Y298114D01*
X243201Y298787D01*
X242179Y299210D01*
X241583Y299289D01*
D02*
G37*
G36*
X240583D02*
X239986Y299210D01*
X238965Y298787D01*
X238087Y298114D01*
X237414Y297236D01*
X236991Y296215D01*
X236912Y295618D01*
X240583D01*
Y299289D01*
D02*
G37*
G36*
X218898Y298644D02*
X217970Y298522D01*
X217105Y298164D01*
X216363Y297594D01*
X215793Y296852D01*
X215435Y295987D01*
X215313Y295059D01*
X215435Y294131D01*
X215793Y293267D01*
X216363Y292524D01*
X217105Y291954D01*
X217970Y291596D01*
X218898Y291474D01*
X219826Y291596D01*
X220690Y291954D01*
X221433Y292524D01*
X222002Y293267D01*
X222360Y294131D01*
X222483Y295059D01*
X222360Y295987D01*
X222002Y296852D01*
X221433Y297594D01*
X220690Y298164D01*
X219826Y298522D01*
X218898Y298644D01*
D02*
G37*
G36*
X245253Y294618D02*
X241583D01*
Y290948D01*
X242179Y291026D01*
X243201Y291449D01*
X244078Y292123D01*
X244751Y293000D01*
X245175Y294022D01*
X245253Y294618D01*
D02*
G37*
G36*
X240583D02*
X236912D01*
X236991Y294022D01*
X237414Y293000D01*
X238087Y292123D01*
X238965Y291449D01*
X239986Y291026D01*
X240583Y290948D01*
Y294618D01*
D02*
G37*
G36*
X256201Y289174D02*
X254978Y289013D01*
X253838Y288541D01*
X252859Y287790D01*
X252108Y286812D01*
X251636Y285672D01*
X251475Y284449D01*
X251636Y283226D01*
X252108Y282086D01*
X252859Y281107D01*
X253838Y280356D01*
X254978Y279884D01*
X256201Y279723D01*
X257424Y279884D01*
X258563Y280356D01*
X259542Y281107D01*
X260293Y282086D01*
X260765Y283226D01*
X260926Y284449D01*
X260765Y285672D01*
X260293Y286812D01*
X259542Y287790D01*
X258563Y288541D01*
X257424Y289013D01*
X256201Y289174D01*
D02*
G37*
G36*
X218996Y288879D02*
X217773Y288718D01*
X216633Y288246D01*
X215655Y287495D01*
X214904Y286516D01*
X214432Y285377D01*
X214271Y284154D01*
X214432Y282930D01*
X214904Y281791D01*
X215655Y280812D01*
X216633Y280061D01*
X217773Y279589D01*
X218996Y279428D01*
X220219Y279589D01*
X221359Y280061D01*
X222338Y280812D01*
X223088Y281791D01*
X223561Y282930D01*
X223722Y284154D01*
X223561Y285377D01*
X223088Y286516D01*
X222338Y287495D01*
X221359Y288246D01*
X220219Y288718D01*
X218996Y288879D01*
D02*
G37*
%LPD*%
G36*
X253066Y322849D02*
Y319193D01*
X253132Y318860D01*
X253321Y318577D01*
X253605Y318293D01*
X253275Y317916D01*
X252875Y318223D01*
X252011Y318581D01*
X251083Y318703D01*
X250155Y318581D01*
X249290Y318223D01*
X248548Y317653D01*
X247978Y316911D01*
X247620Y316046D01*
X247498Y315118D01*
X247620Y314190D01*
X247978Y313326D01*
X248548Y312583D01*
X249290Y312013D01*
X250155Y311655D01*
X251083Y311533D01*
X252011Y311655D01*
X252875Y312013D01*
X253618Y312583D01*
X253944Y313008D01*
X254444Y312839D01*
Y310538D01*
X252347Y308441D01*
X252011Y308581D01*
X251083Y308703D01*
X250155Y308581D01*
X249290Y308223D01*
X248548Y307653D01*
X247978Y306911D01*
X247620Y306046D01*
X247498Y305118D01*
X247620Y304190D01*
X247759Y303853D01*
X245663Y301757D01*
X243362D01*
X243193Y302257D01*
X243618Y302583D01*
X244187Y303326D01*
X244546Y304190D01*
X244668Y305118D01*
X244546Y306046D01*
X244187Y306911D01*
X243794Y307424D01*
X245891Y309522D01*
X246080Y309804D01*
X246147Y310138D01*
Y316424D01*
X252388Y322665D01*
X252566Y322932D01*
X252608Y322941D01*
X253066Y322849D01*
D02*
G37*
D10*
X226181Y400787D02*
X226378Y400591D01*
X246024Y300886D02*
X255315Y310177D01*
X238852Y300886D02*
X246024D01*
X233598Y295631D02*
X238852Y300886D01*
X224311Y297933D02*
X226137Y299759D01*
X224311Y292126D02*
Y297933D01*
Y292126D02*
X226078Y290359D01*
X255937Y320244D02*
Y357941D01*
X243307Y370571D02*
X255937Y357941D01*
X243307Y370571D02*
Y394102D01*
X253937Y319193D02*
Y357219D01*
X251772Y323281D02*
Y356556D01*
X239307Y369020D02*
X251772Y356556D01*
X239307Y369020D02*
Y391598D01*
X226078Y290359D02*
X230844D01*
X226137Y299759D02*
X228830D01*
X245276Y316785D02*
X251772Y323281D01*
X245276Y310138D02*
Y316785D01*
X240295Y305157D02*
X245276Y310138D01*
X245866Y381201D02*
X249717Y377350D01*
X227264Y406595D02*
X232972Y412303D01*
X248789Y368435D02*
X250778D01*
X256398Y374055D01*
X246654Y370571D02*
X248789Y368435D01*
X246654Y370571D02*
Y371260D01*
X249717Y371278D02*
Y377350D01*
X251279Y412303D02*
X255807Y416831D01*
X232972Y412303D02*
X251279D01*
X233598Y293112D02*
Y295631D01*
X230844Y290359D02*
X233598Y293112D01*
X228830Y299759D02*
X228898Y299827D01*
Y305059D01*
X230197Y295059D02*
X240295Y305157D01*
X228898Y295059D02*
X230197D01*
X220768Y313576D02*
Y315059D01*
Y313576D02*
X226951Y319759D01*
X218898Y315059D02*
X220768D01*
X230487Y319759D02*
X234006Y323278D01*
X226951Y319759D02*
X230487D01*
X234006Y342372D02*
X234006Y323278D01*
X233696Y319858D02*
X245251D01*
X228898Y315059D02*
X233696Y319858D01*
X245251D02*
X249772Y324378D01*
Y355543D01*
X253937Y319193D02*
X255315Y317815D01*
Y310177D02*
Y317815D01*
X255937Y320244D02*
X257579Y318602D01*
Y302441D02*
Y318602D01*
X232874Y372441D02*
X249772Y355543D01*
X224410Y372441D02*
X232874D01*
X237992Y392913D02*
X239307Y391598D01*
X241307Y369849D02*
Y393134D01*
Y369849D02*
X253937Y357219D01*
X250295Y295158D02*
X257579Y302441D01*
X227165Y406693D02*
X227264Y406595D01*
X238809Y395632D02*
X241307Y393134D01*
X239772Y397638D02*
X243307Y394102D01*
X220473Y382283D02*
X222047D01*
X216003Y386752D02*
X220473Y382283D01*
X216003Y404192D02*
X216535Y404724D01*
X216003Y386752D02*
Y404192D01*
X226772Y410630D02*
Y417323D01*
X219291Y403150D02*
X226772Y410630D01*
X213779Y405512D02*
X217323Y409055D01*
X213779Y383465D02*
Y405512D01*
Y383465D02*
X214567Y382677D01*
X226378Y392717D02*
X231299Y397638D01*
X226378Y392520D02*
Y392717D01*
X233034Y395632D02*
X238809D01*
X231299Y397638D02*
X239772D01*
X226122Y388720D02*
X233034Y395632D01*
X229134Y399606D02*
Y403150D01*
X226771Y397243D02*
X229134Y399606D01*
X226181Y400787D02*
X226378D01*
X228346Y403937D02*
X229134Y403150D01*
X233465Y392913D02*
X237992D01*
X226543Y385992D02*
X233465Y392913D01*
X223654Y397866D02*
X226378Y400591D01*
X223654Y389732D02*
Y397866D01*
Y389732D02*
X224665Y388720D01*
X221654Y400787D02*
X224803Y403937D01*
X228346D01*
X214567Y382677D02*
X217126Y380118D01*
X217323Y409055D02*
Y415158D01*
X217126Y380118D02*
X218504Y378740D01*
X224665Y388720D02*
X225197D01*
X226122D01*
X221654Y388728D02*
Y400787D01*
Y388728D02*
X224390Y385992D01*
X226543D01*
X212598Y277854D02*
Y437008D01*
Y277854D02*
X262598D01*
Y437008D01*
X212598D02*
X262598D01*
D53*
X256398Y394055D02*
D03*
Y384055D02*
D03*
D54*
Y374055D02*
D03*
D55*
X251083Y315118D02*
D03*
X241083D02*
D03*
X251083Y305118D02*
D03*
X241083D02*
D03*
Y295118D02*
D03*
X218898Y295059D02*
D03*
X228898D02*
D03*
X218898Y305059D02*
D03*
X228898D02*
D03*
Y315059D02*
D03*
D56*
X251083Y295118D02*
D03*
X218898Y315059D02*
D03*
D57*
X256201Y284449D02*
D03*
X218996Y284154D02*
D03*
X256004Y429724D02*
D03*
D58*
X256594Y416732D02*
D03*
X256496Y405709D02*
D03*
X234252Y343307D02*
D03*
D59*
X245866Y381201D02*
D03*
X249717Y371278D02*
D03*
X246654Y371260D02*
D03*
X226378Y359744D02*
D03*
X222047Y382283D02*
D03*
X226772Y417323D02*
D03*
X216535Y404724D02*
D03*
X226378Y392520D02*
D03*
X219291Y403150D02*
D03*
X226378Y400787D02*
D03*
X227165Y406693D02*
D03*
X243307Y397638D02*
D03*
X224410Y372441D02*
D03*
X226771Y397243D02*
D03*
X215354Y422835D02*
D03*
X237992Y392913D02*
D03*
X217323Y415158D02*
D03*
X218898Y391339D02*
D03*
X218799Y377658D02*
D03*
X225197Y388720D02*
D03*
D60*
X231693Y382087D02*
D03*
X236024D02*
D03*
X231693Y377756D02*
D03*
X236024D02*
D03*
M02*
