M48
;Layer_Color=9474304
;FILE_FORMAT=2:5
INCH,LZ
;TYPE=PLATED
T1F00S00C0.00787
T2F00S00C0.01000
T3F00S00C0.04000
T4F00S00C0.04016
T5F00S00C0.05000
;TYPE=NON_PLATED
T6F00S00C0.08661
%
T01
X0231693Y0377756
Y0382087
X0236024
Y0377756
T02
X0226378Y0359744
X022441Y0372441
X0218799Y0377658
X0222047Y0382283
X0225197Y038872
X0226378Y039252
X0226771Y0397243
X0226378Y0400787
X0227165Y0406693
X0226772Y0417323
X0217323Y0415158
X0215354Y0422835
X0216535Y0404724
X0219291Y040315
X0218898Y0391339
X0237992Y0392913
X0243307Y0397638
X0245866Y0381201
X0246654Y037126
X0249717Y0371278
T03
X0234252Y0343307
X0256496Y0405709
X0256594Y0416732
T04
X0218898Y0295059
X0228898
Y0305059
X0218898
X0241083Y0305118
X0251083
Y0295118
X0241083
Y0315118
X0251083
X0228898Y0315059
X0218898
T05
X0256398Y0374055
Y0384055
Y0394055
T06
X0218996Y0284154
X0256201Y0284449
X0256004Y0429724
M30
