G04*
G04 #@! TF.GenerationSoftware,Altium Limited,Altium Designer,18.0.12 (696)*
G04*
G04 Layer_Color=32768*
%FSLAX25Y25*%
%MOIN*%
G70*
G01*
G75*
%ADD12C,0.01000*%
%ADD26C,0.00394*%
G36*
X190611Y122516D02*
X190295D01*
Y124520D01*
X190291Y124516D01*
X190276Y124501D01*
X190249Y124481D01*
X190213Y124454D01*
X190171Y124419D01*
X190120Y124384D01*
X190061Y124341D01*
X189995Y124302D01*
X189991D01*
X189987Y124298D01*
X189964Y124282D01*
X189929Y124263D01*
X189886Y124240D01*
X189835Y124212D01*
X189780Y124189D01*
X189722Y124162D01*
X189667Y124138D01*
Y124446D01*
X189671D01*
X189679Y124450D01*
X189695Y124458D01*
X189710Y124470D01*
X189734Y124481D01*
X189761Y124493D01*
X189823Y124528D01*
X189894Y124571D01*
X189972Y124622D01*
X190050Y124680D01*
X190124Y124743D01*
X190128Y124747D01*
X190131Y124750D01*
X190155Y124774D01*
X190190Y124809D01*
X190233Y124852D01*
X190280Y124906D01*
X190326Y124965D01*
X190369Y125027D01*
X190404Y125090D01*
X190611D01*
Y122516D01*
D02*
G37*
G36*
X188197Y125074D02*
X188228D01*
X188306Y125070D01*
X188388Y125062D01*
X188474Y125047D01*
X188556Y125031D01*
X188595Y125020D01*
X188630Y125008D01*
X188634D01*
X188638Y125004D01*
X188661Y124996D01*
X188692Y124977D01*
X188731Y124949D01*
X188778Y124918D01*
X188825Y124875D01*
X188872Y124825D01*
X188915Y124762D01*
X188919Y124754D01*
X188930Y124731D01*
X188950Y124696D01*
X188969Y124649D01*
X188989Y124591D01*
X189008Y124524D01*
X189020Y124454D01*
X189024Y124376D01*
Y124372D01*
Y124364D01*
Y124349D01*
X189020Y124329D01*
Y124306D01*
X189016Y124278D01*
X189000Y124216D01*
X188981Y124142D01*
X188950Y124068D01*
X188903Y123990D01*
X188876Y123951D01*
X188845Y123916D01*
X188837Y123908D01*
X188825Y123900D01*
X188813Y123885D01*
X188794Y123873D01*
X188770Y123853D01*
X188743Y123838D01*
X188712Y123818D01*
X188677Y123799D01*
X188634Y123779D01*
X188591Y123760D01*
X188540Y123740D01*
X188490Y123721D01*
X188431Y123705D01*
X188369Y123694D01*
X188302Y123682D01*
X188310Y123678D01*
X188326Y123670D01*
X188349Y123658D01*
X188376Y123643D01*
X188443Y123600D01*
X188478Y123576D01*
X188505Y123553D01*
X188513Y123545D01*
X188532Y123530D01*
X188560Y123499D01*
X188595Y123459D01*
X188638Y123409D01*
X188685Y123350D01*
X188735Y123284D01*
X188786Y123210D01*
X189231Y122516D01*
X188805D01*
X188466Y123046D01*
Y123050D01*
X188458Y123058D01*
X188451Y123070D01*
X188443Y123085D01*
X188416Y123124D01*
X188380Y123175D01*
X188341Y123233D01*
X188298Y123292D01*
X188259Y123346D01*
X188221Y123397D01*
X188217Y123401D01*
X188205Y123417D01*
X188185Y123440D01*
X188166Y123467D01*
X188107Y123522D01*
X188080Y123549D01*
X188049Y123569D01*
X188045Y123573D01*
X188037Y123576D01*
X188022Y123584D01*
X188002Y123596D01*
X187955Y123619D01*
X187897Y123639D01*
X187893D01*
X187885Y123643D01*
X187870D01*
X187850Y123647D01*
X187823Y123651D01*
X187792D01*
X187752Y123654D01*
X187316D01*
Y122516D01*
X186976D01*
Y125078D01*
X188166D01*
X188197Y125074D01*
D02*
G37*
G36*
X196872Y128466D02*
X196899D01*
X196931Y128463D01*
X196963Y128460D01*
X197001Y128454D01*
X197083Y128439D01*
X197170Y128422D01*
X197261Y128393D01*
X197345Y128355D01*
X197348D01*
X197354Y128349D01*
X197366Y128343D01*
X197383Y128334D01*
X197401Y128323D01*
X197421Y128308D01*
X197471Y128270D01*
X197527Y128226D01*
X197582Y128171D01*
X197637Y128103D01*
X197684Y128031D01*
Y128028D01*
X197690Y128022D01*
X197696Y128010D01*
X197702Y127992D01*
X197710Y127975D01*
X197722Y127952D01*
X197731Y127922D01*
X197743Y127893D01*
X197754Y127861D01*
X197763Y127826D01*
X197783Y127747D01*
X197795Y127660D01*
X197801Y127566D01*
Y127537D01*
X197798Y127517D01*
X197795Y127493D01*
X197792Y127464D01*
X197789Y127432D01*
X197783Y127397D01*
X197766Y127321D01*
X197740Y127239D01*
X197722Y127198D01*
X197702Y127157D01*
X197678Y127120D01*
X197652Y127082D01*
X197649Y127079D01*
X197646Y127073D01*
X197637Y127064D01*
X197626Y127049D01*
X197611Y127035D01*
X197591Y127014D01*
X197570Y126994D01*
X197547Y126973D01*
X197518Y126950D01*
X197488Y126930D01*
X197453Y126906D01*
X197415Y126883D01*
X197378Y126863D01*
X197334Y126842D01*
X197240Y126807D01*
X197182Y127058D01*
X197185D01*
X197191Y127061D01*
X197202Y127064D01*
X197217Y127070D01*
X197234Y127079D01*
X197255Y127087D01*
X197299Y127108D01*
X197348Y127134D01*
X197401Y127169D01*
X197448Y127207D01*
X197488Y127254D01*
X197491Y127260D01*
X197503Y127277D01*
X197518Y127303D01*
X197538Y127341D01*
X197556Y127385D01*
X197570Y127441D01*
X197582Y127502D01*
X197585Y127572D01*
Y127593D01*
X197582Y127607D01*
Y127628D01*
X197579Y127648D01*
X197570Y127700D01*
X197559Y127759D01*
X197538Y127820D01*
X197512Y127882D01*
X197477Y127940D01*
Y127943D01*
X197471Y127946D01*
X197456Y127963D01*
X197433Y127990D01*
X197401Y128022D01*
X197360Y128054D01*
X197313Y128089D01*
X197255Y128121D01*
X197191Y128147D01*
X197188D01*
X197182Y128150D01*
X197173Y128153D01*
X197159Y128156D01*
X197144Y128162D01*
X197124Y128165D01*
X197077Y128176D01*
X197021Y128188D01*
X196960Y128197D01*
X196893Y128203D01*
X196823Y128206D01*
X196820D01*
X196811D01*
X196799D01*
X196782D01*
X196761Y128203D01*
X196735D01*
X196709Y128200D01*
X196680Y128197D01*
X196613Y128188D01*
X196539Y128176D01*
X196467Y128159D01*
X196396Y128136D01*
X196394D01*
X196388Y128133D01*
X196379Y128127D01*
X196367Y128121D01*
X196332Y128106D01*
X196294Y128083D01*
X196247Y128051D01*
X196204Y128013D01*
X196160Y127969D01*
X196122Y127917D01*
Y127914D01*
X196119Y127911D01*
X196113Y127902D01*
X196107Y127890D01*
X196096Y127858D01*
X196078Y127817D01*
X196064Y127771D01*
X196049Y127715D01*
X196037Y127654D01*
X196034Y127590D01*
Y127569D01*
X196037Y127555D01*
Y127537D01*
X196040Y127514D01*
X196049Y127464D01*
X196064Y127409D01*
X196087Y127347D01*
X196116Y127289D01*
X196157Y127230D01*
X196160Y127227D01*
X196163Y127225D01*
X196180Y127207D01*
X196210Y127181D01*
X196247Y127149D01*
X196300Y127117D01*
X196361Y127082D01*
X196437Y127052D01*
X196522Y127029D01*
X196458Y126775D01*
X196455D01*
X196443Y126778D01*
X196429Y126784D01*
X196405Y126789D01*
X196382Y126801D01*
X196350Y126813D01*
X196318Y126824D01*
X196282Y126842D01*
X196204Y126880D01*
X196125Y126933D01*
X196049Y126991D01*
X196014Y127026D01*
X195982Y127064D01*
X195979Y127067D01*
X195976Y127073D01*
X195967Y127084D01*
X195956Y127102D01*
X195944Y127122D01*
X195929Y127146D01*
X195915Y127172D01*
X195900Y127204D01*
X195885Y127239D01*
X195871Y127277D01*
X195856Y127321D01*
X195845Y127365D01*
X195824Y127461D01*
X195821Y127514D01*
X195818Y127569D01*
Y127598D01*
X195821Y127622D01*
Y127648D01*
X195824Y127677D01*
X195830Y127712D01*
X195833Y127747D01*
X195850Y127829D01*
X195871Y127914D01*
X195903Y127996D01*
X195921Y128036D01*
X195944Y128074D01*
X195947Y128077D01*
X195950Y128083D01*
X195958Y128092D01*
X195967Y128106D01*
X195996Y128141D01*
X196037Y128182D01*
X196087Y128232D01*
X196151Y128279D01*
X196224Y128328D01*
X196309Y128369D01*
X196312D01*
X196320Y128372D01*
X196332Y128378D01*
X196350Y128384D01*
X196373Y128393D01*
X196399Y128401D01*
X196429Y128410D01*
X196464Y128419D01*
X196499Y128428D01*
X196539Y128436D01*
X196627Y128454D01*
X196721Y128466D01*
X196823Y128469D01*
X196826D01*
X196837D01*
X196852D01*
X196872Y128466D01*
D02*
G37*
G36*
X197296Y126375D02*
X197299Y126369D01*
X197304Y126357D01*
X197313Y126346D01*
X197322Y126328D01*
X197331Y126308D01*
X197357Y126261D01*
X197389Y126208D01*
X197427Y126150D01*
X197471Y126092D01*
X197518Y126036D01*
X197521Y126033D01*
X197524Y126030D01*
X197541Y126013D01*
X197567Y125987D01*
X197599Y125954D01*
X197640Y125919D01*
X197684Y125884D01*
X197731Y125852D01*
X197778Y125826D01*
Y125671D01*
X195850D01*
Y125908D01*
X197351D01*
X197348Y125911D01*
X197337Y125922D01*
X197322Y125943D01*
X197302Y125969D01*
X197275Y126001D01*
X197249Y126039D01*
X197217Y126083D01*
X197188Y126133D01*
Y126135D01*
X197185Y126138D01*
X197173Y126156D01*
X197159Y126182D01*
X197141Y126214D01*
X197121Y126252D01*
X197103Y126293D01*
X197083Y126337D01*
X197065Y126378D01*
X197296D01*
Y126375D01*
D02*
G37*
%LPC*%
G36*
X188123Y124793D02*
X187316D01*
Y123947D01*
X188080D01*
X188123Y123951D01*
X188174Y123955D01*
X188232Y123959D01*
X188295Y123967D01*
X188353Y123978D01*
X188404Y123994D01*
X188412Y123998D01*
X188427Y124002D01*
X188451Y124013D01*
X188478Y124029D01*
X188509Y124052D01*
X188544Y124080D01*
X188575Y124111D01*
X188603Y124146D01*
X188607Y124150D01*
X188614Y124165D01*
X188626Y124185D01*
X188638Y124216D01*
X188649Y124247D01*
X188661Y124286D01*
X188669Y124329D01*
X188673Y124376D01*
Y124380D01*
Y124384D01*
Y124407D01*
X188665Y124438D01*
X188657Y124481D01*
X188642Y124528D01*
X188618Y124579D01*
X188583Y124629D01*
X188540Y124676D01*
X188532Y124680D01*
X188517Y124696D01*
X188482Y124715D01*
X188439Y124735D01*
X188380Y124758D01*
X188310Y124774D01*
X188224Y124790D01*
X188123Y124793D01*
D02*
G37*
%LPD*%
D12*
X99410Y99410D02*
Y336614D01*
Y99410D02*
X277559D01*
Y336614D01*
X99410D02*
X277559D01*
D26*
X183268Y121161D02*
X194685D01*
X183268Y126870D02*
X194685D01*
Y121161D02*
Y126870D01*
X183268Y121161D02*
Y126870D01*
X195472Y130512D02*
X198228D01*
X195472Y123425D02*
X198228D01*
Y130512D01*
X195472Y123425D02*
Y130512D01*
M02*
