G04*
G04 #@! TF.GenerationSoftware,Altium Limited,Altium Designer,18.0.12 (696)*
G04*
G04 Layer_Color=65535*
%FSLAX25Y25*%
%MOIN*%
G70*
G01*
G75*
%ADD10C,0.00984*%
%ADD11C,0.02362*%
%ADD12C,0.01000*%
%ADD13C,0.00787*%
D10*
X195394Y153347D02*
G03*
X195394Y153347I-492J0D01*
G01*
D11*
X191142Y145276D02*
G03*
X191142Y145276I-1181J0D01*
G01*
D12*
X108701Y153465D02*
Y165465D01*
X168701D01*
X108701Y151465D02*
Y153465D01*
X168701Y151465D02*
Y165465D01*
X197835Y155604D02*
Y150606D01*
X198834Y149606D01*
X200834D01*
X201833Y150606D01*
Y155604D01*
X203833Y149606D02*
X205832D01*
X204832D01*
Y155604D01*
X203833Y154605D01*
X178150Y113189D02*
Y119187D01*
X181149D01*
X182148Y118187D01*
Y116188D01*
X181149Y115188D01*
X178150D01*
X180149D02*
X182148Y113189D01*
X184148D02*
X186147D01*
X185147D01*
Y119187D01*
X184148Y118187D01*
X175259Y164463D02*
X173259D01*
X174259D01*
Y159464D01*
X173259Y158465D01*
X172259D01*
X171260Y159464D01*
X177258Y158465D02*
X179257D01*
X178258D01*
Y164463D01*
X177258Y163463D01*
X204802Y126907D02*
X205801Y127907D01*
Y129906D01*
X204802Y130905D01*
X200803D01*
X199803Y129906D01*
Y127907D01*
X200803Y126907D01*
X199803Y124907D02*
Y122908D01*
Y123908D01*
X205801D01*
X204802Y124907D01*
X99410Y99410D02*
Y336614D01*
Y99410D02*
X277559D01*
Y336614D01*
X99410D02*
X277559D01*
D13*
X174606Y149213D02*
X193898D01*
X174606Y135433D02*
X193898D01*
Y149213D01*
X174606Y135433D02*
Y149213D01*
X188386Y126083D02*
X189567D01*
X188386Y121949D02*
X189567D01*
M02*
