G04*
G04 #@! TF.GenerationSoftware,Altium Limited,Altium Designer,18.0.12 (696)*
G04*
G04 Layer_Physical_Order=1*
G04 Layer_Color=255*
%FSLAX25Y25*%
%MOIN*%
G70*
G01*
G75*
%ADD11C,0.02362*%
%ADD12C,0.01000*%
%ADD14R,0.05118X0.11024*%
%ADD15O,0.01968X0.05118*%
%ADD16R,0.03150X0.04921*%
%ADD17R,0.01968X0.02362*%
%ADD24C,0.06000*%
%ADD25C,0.05000*%
G36*
X275590Y100394D02*
X100394D01*
Y167323D01*
X174611D01*
X179528Y162406D01*
Y153347D01*
X179697Y152495D01*
X179729Y152448D01*
Y151772D01*
X179834Y151242D01*
X179498Y150742D01*
X179006D01*
X178670Y151242D01*
X178775Y151772D01*
Y152847D01*
X174729D01*
Y151772D01*
X174834Y151242D01*
X174498Y150742D01*
X166993D01*
X166244Y151491D01*
X166435Y151953D01*
X167260D01*
Y164976D01*
X160142D01*
Y152982D01*
X157260D01*
Y164976D01*
X150142D01*
Y151953D01*
X152774D01*
X153283Y151444D01*
X153091Y150982D01*
X150393D01*
X147260Y154116D01*
Y164976D01*
X140142D01*
Y151953D01*
X145097D01*
X147606Y149444D01*
X147414Y148982D01*
X140582D01*
X137260Y152305D01*
Y164976D01*
X130142D01*
Y151953D01*
X133286D01*
X138867Y146371D01*
X139364Y146040D01*
X139949Y145923D01*
X159000D01*
X170738Y134185D01*
Y127867D01*
X170855Y127282D01*
X171186Y126786D01*
X173813Y124159D01*
X174309Y123827D01*
X174895Y123711D01*
X182661D01*
Y120555D01*
X187811D01*
Y124428D01*
X187833Y124450D01*
X188165Y124946D01*
X188281Y125531D01*
Y128442D01*
X188621Y128950D01*
X188775Y129724D01*
Y132874D01*
X188621Y133648D01*
X188182Y134305D01*
X187526Y134743D01*
X186752Y134897D01*
X185978Y134743D01*
X185321Y134305D01*
X184883Y133648D01*
X184729Y132874D01*
Y129724D01*
X184883Y128950D01*
X185223Y128442D01*
Y127476D01*
X183405D01*
X183138Y127976D01*
X183165Y128017D01*
X183236Y128374D01*
X183621Y128950D01*
X183775Y129724D01*
Y132874D01*
X183621Y133648D01*
X183183Y134305D01*
X182526Y134743D01*
X181752Y134897D01*
X180978Y134743D01*
X180321Y134305D01*
X179883Y133648D01*
X179729Y132874D01*
Y129724D01*
X179825Y129241D01*
X179512Y128850D01*
X178992Y128856D01*
X178685Y129270D01*
X178775Y129724D01*
Y132874D01*
X178621Y133648D01*
X178182Y134305D01*
X177797Y134562D01*
Y136476D01*
X177681Y137061D01*
X177349Y137557D01*
X167685Y147221D01*
X167876Y147683D01*
X188583D01*
X189168Y147800D01*
X189664Y148131D01*
X191359Y149827D01*
X191752Y149749D01*
X192526Y149902D01*
X193183Y150341D01*
X193621Y150997D01*
X193775Y151772D01*
Y154921D01*
X193621Y155695D01*
X193183Y156352D01*
X192526Y156790D01*
X191752Y156944D01*
X190978Y156790D01*
X190321Y156352D01*
X189883Y155695D01*
X189729Y154921D01*
Y152522D01*
X189545Y152338D01*
X188906Y152383D01*
X188806Y152495D01*
X188976Y153347D01*
Y157289D01*
X189307Y157543D01*
X189868Y158274D01*
X190221Y159126D01*
X190341Y160039D01*
X190221Y160953D01*
X189868Y161804D01*
X189307Y162536D01*
X188576Y163097D01*
X187725Y163449D01*
X186811Y163570D01*
X185897Y163449D01*
X185046Y163097D01*
X184476Y162659D01*
X183976Y162872D01*
Y163327D01*
X183976Y163327D01*
X183807Y164178D01*
X183325Y164899D01*
X183324Y164899D01*
X181363Y166861D01*
X181554Y167323D01*
X275590D01*
Y100394D01*
D02*
G37*
%LPC*%
G36*
X127260Y164976D02*
X124201D01*
Y158965D01*
X127260D01*
Y164976D01*
D02*
G37*
G36*
X123201D02*
X120142D01*
Y158965D01*
X123201D01*
Y164976D01*
D02*
G37*
G36*
X177252Y156845D02*
Y153847D01*
X178775D01*
Y154921D01*
X178621Y155695D01*
X178182Y156352D01*
X177526Y156790D01*
X177252Y156845D01*
D02*
G37*
G36*
X176252D02*
X175978Y156790D01*
X175321Y156352D01*
X174883Y155695D01*
X174729Y154921D01*
Y153847D01*
X176252D01*
Y156845D01*
D02*
G37*
G36*
X127260Y157965D02*
X124201D01*
Y151953D01*
X127260D01*
Y157965D01*
D02*
G37*
G36*
X123201D02*
X120142D01*
Y151953D01*
X123201D01*
Y157965D01*
D02*
G37*
G36*
X117260Y164976D02*
X110142D01*
Y151953D01*
X110959D01*
X111129Y151453D01*
X110693Y151118D01*
X110132Y150387D01*
X109779Y149536D01*
X109659Y148622D01*
X109779Y147708D01*
X110132Y146857D01*
X110693Y146126D01*
X111424Y145565D01*
X112275Y145212D01*
X113189Y145092D01*
X114103Y145212D01*
X114954Y145565D01*
X115685Y146126D01*
X116246Y146857D01*
X116599Y147708D01*
X116719Y148622D01*
X116599Y149536D01*
X116246Y150387D01*
X115685Y151118D01*
X115249Y151453D01*
X115419Y151953D01*
X117260D01*
Y164976D01*
D02*
G37*
G36*
X198835Y131118D02*
X197350D01*
Y129437D01*
X198835D01*
Y131118D01*
D02*
G37*
G36*
X196350D02*
X194866D01*
Y129437D01*
X196350D01*
Y131118D01*
D02*
G37*
G36*
X191752Y134897D02*
X190978Y134743D01*
X190321Y134305D01*
X189883Y133648D01*
X189729Y132874D01*
Y129724D01*
X189883Y128950D01*
X190321Y128294D01*
X190597Y128110D01*
Y127476D01*
X190142D01*
Y120555D01*
X190142D01*
X190234Y120368D01*
X189856Y119875D01*
X189504Y119024D01*
X189383Y118110D01*
X189504Y117197D01*
X189856Y116345D01*
X190417Y115614D01*
X191148Y115053D01*
X192000Y114700D01*
X192913Y114580D01*
X193827Y114700D01*
X194678Y115053D01*
X195410Y115614D01*
X195971Y116345D01*
X196323Y117197D01*
X196444Y118110D01*
X196323Y119024D01*
X195971Y119875D01*
X195410Y120607D01*
X195291Y120697D01*
Y122819D01*
X198835D01*
Y126756D01*
Y128437D01*
X194866D01*
Y127476D01*
X193655D01*
Y129123D01*
X193775Y129724D01*
Y132874D01*
X193621Y133648D01*
X193183Y134305D01*
X192526Y134743D01*
X191752Y134897D01*
D02*
G37*
G36*
X265748Y116597D02*
X264356Y116414D01*
X263060Y115877D01*
X261946Y115022D01*
X261092Y113909D01*
X260555Y112612D01*
X260371Y111221D01*
X260555Y109829D01*
X261092Y108532D01*
X261946Y107419D01*
X263060Y106564D01*
X264356Y106027D01*
X265748Y105844D01*
X267140Y106027D01*
X268436Y106564D01*
X269550Y107419D01*
X270404Y108532D01*
X270941Y109829D01*
X271125Y111221D01*
X270941Y112612D01*
X270404Y113909D01*
X269550Y115022D01*
X268436Y115877D01*
X267140Y116414D01*
X265748Y116597D01*
D02*
G37*
G36*
X111221Y115613D02*
X109829Y115430D01*
X108532Y114893D01*
X107419Y114038D01*
X106564Y112925D01*
X106027Y111628D01*
X105844Y110236D01*
X106027Y108845D01*
X106564Y107548D01*
X107419Y106434D01*
X108532Y105580D01*
X109829Y105043D01*
X111221Y104859D01*
X112612Y105043D01*
X113909Y105580D01*
X115022Y106434D01*
X115877Y107548D01*
X116414Y108845D01*
X116597Y110236D01*
X116414Y111628D01*
X115877Y112925D01*
X115022Y114038D01*
X113909Y114893D01*
X112612Y115430D01*
X111221Y115613D01*
D02*
G37*
%LPD*%
D11*
X117913Y174311D02*
X264370D01*
X113189Y325492D02*
X264370D01*
X113189Y169626D02*
Y325492D01*
X264370Y174311D02*
Y325492D01*
X117913Y174311D02*
Y320768D01*
X259646D01*
Y179035D02*
Y320768D01*
X122638Y179035D02*
X259646D01*
X122638D02*
Y316043D01*
X254921D01*
Y183760D02*
Y316043D01*
X127362Y183760D02*
X254921D01*
X127362D02*
Y311319D01*
X250197D01*
Y188484D02*
Y311319D01*
X132087Y188484D02*
X250197D01*
X132087D02*
Y306594D01*
X245669D01*
Y193209D02*
Y306594D01*
X136713Y193110D02*
X245571D01*
X136713D02*
Y301969D01*
X240945D01*
Y197835D02*
Y301969D01*
X141535Y197835D02*
Y297244D01*
Y197835D02*
X240945D01*
X141535Y297244D02*
X236221D01*
X231496Y207283D02*
Y292520D01*
X236319Y202559D02*
Y297342D01*
X146260Y202559D02*
Y292520D01*
Y202559D02*
X236319D01*
X146260Y292520D02*
X231496D01*
X150787Y207283D02*
X231496D01*
X150787D02*
Y287795D01*
X226772D01*
Y212008D02*
Y287795D01*
X155512Y212008D02*
X226772D01*
X155512D02*
Y283071D01*
X222047D01*
Y216732D02*
Y283071D01*
X160236Y216732D02*
X222047D01*
X160236D02*
Y278346D01*
X217323D01*
Y221457D02*
Y278346D01*
X165256Y221457D02*
X217323D01*
X165256D02*
Y273622D01*
X212598D01*
Y226181D02*
Y273622D01*
X169980Y226181D02*
X212598D01*
X169980D02*
Y268898D01*
X207874D01*
Y230906D02*
Y268898D01*
X174705Y230906D02*
X207874D01*
X186752Y153347D02*
Y159980D01*
X113189Y169626D02*
X175453D01*
X181752Y153347D02*
Y163327D01*
X175453Y169626D02*
X181752Y163327D01*
D12*
X191929Y123228D02*
X192913Y122244D01*
X145236Y153976D02*
X149760Y149453D01*
X160462D01*
X155437Y151453D02*
X161291D01*
X153740Y153150D02*
X155437Y151453D01*
X174268Y128695D02*
Y135647D01*
X139949Y147453D02*
X159634D01*
X172268Y134819D01*
X160462Y149453D02*
X174268Y135647D01*
X161291Y151453D02*
X176268Y136476D01*
X163701Y151871D02*
Y158465D01*
Y151871D02*
X166359Y149213D01*
X188583D01*
X176268Y132663D02*
X176752Y132179D01*
X176268Y132663D02*
Y136476D01*
X172268Y127867D02*
Y134819D01*
X131890Y155512D02*
X139949Y147453D01*
X143740Y153976D02*
X145236D01*
X113189Y157953D02*
X113701Y158465D01*
X113189Y148622D02*
Y157953D01*
X186752Y125531D02*
Y131299D01*
X185236Y124016D02*
X186752Y125531D01*
X192913Y118110D02*
Y122244D01*
X191929Y123228D02*
X192717Y124016D01*
X193701Y125000D01*
X196850D01*
X192126Y125591D02*
X192126Y125591D01*
Y130925D01*
X191752Y131299D02*
X192126Y130925D01*
X184012Y125240D02*
X185236Y124016D01*
X174895Y125240D02*
X184012D01*
X180390Y127240D02*
X181752Y128602D01*
X175723Y127240D02*
X180390D01*
X172268Y127867D02*
X174895Y125240D01*
X174268Y128695D02*
X175723Y127240D01*
X176752Y132179D02*
Y133090D01*
Y131299D02*
Y132179D01*
X181752Y128602D02*
Y131299D01*
X188583Y149213D02*
X191752Y152382D01*
Y153347D01*
X245571Y193110D02*
X245669Y193209D01*
X236221Y297244D02*
X236319Y297342D01*
X186752Y159980D02*
X186811Y160039D01*
X99410Y99410D02*
Y336614D01*
Y99410D02*
X277559D01*
Y336614D01*
X99410D02*
X277559D01*
D14*
X163701Y158465D02*
D03*
X153701D02*
D03*
X143701D02*
D03*
X133701D02*
D03*
X123701D02*
D03*
X113701D02*
D03*
D15*
X191752Y153347D02*
D03*
X186752D02*
D03*
X181752D02*
D03*
X176752D02*
D03*
X191752Y131299D02*
D03*
X186752D02*
D03*
X181752D02*
D03*
X176752D02*
D03*
D16*
X185236Y124016D02*
D03*
X192717D02*
D03*
D17*
X196850Y125000D02*
D03*
Y128937D02*
D03*
D24*
X265748Y111221D02*
D03*
X111221Y110236D02*
D03*
D25*
X192913Y118110D02*
D03*
X174705Y230906D02*
D03*
X186811Y160039D02*
D03*
X113189Y148622D02*
D03*
M02*
